<svg width="46" height="58" viewBox="0 0 46 58" fill="none" xmlns="http://www.w3.org/2000/svg">
<path d="M41.8949 26.0109C43.785 27.1844 43.785 29.9348 41.8949 31.1083L4.5824 54.2742C2.58395 55.515 -3.8147e-06 54.0778 -3.8147e-06 51.7255V5.39376C-3.8147e-06 3.04147 2.58395 1.60428 4.5824 2.84504L41.8949 26.0109Z" fill="#FFD700"/>
<g filter="url(#filter0_d_4_189)">
<path d="M4.37406 37.914C4.46206 37.4007 4.56473 36.8727 4.68206 36.33C4.7994 35.802 4.94606 35.208 5.12206 34.548C5.31273 33.8733 5.54006 33.096 5.80406 32.216C6.06806 31.336 6.39806 30.2947 6.79406 29.092C6.5594 29.1067 6.3174 29.1287 6.06806 29.158C5.8334 29.1873 5.5914 29.2167 5.34206 29.246C5.35673 28.8793 5.5254 28.5933 5.84806 28.388C6.1854 28.168 6.6254 28.0067 7.16806 27.904C7.27073 27.596 7.3734 27.2807 7.47606 26.958C7.5934 26.6207 7.71073 26.276 7.82806 25.924C7.9454 25.5573 8.07006 25.1907 8.20206 24.824C8.33406 24.4427 8.46606 24.0467 8.59806 23.636C8.74473 23.2253 8.8914 22.8073 9.03806 22.382C9.09673 22.2207 9.16273 22.0227 9.23606 21.788C9.3094 21.5387 9.34606 21.304 9.34606 21.084C9.34606 20.9667 9.32406 20.886 9.28006 20.842C9.25073 20.798 9.17006 20.776 9.03806 20.776C8.68606 20.776 8.3414 20.9227 8.00406 21.216C7.6814 21.4947 7.38806 21.854 7.12406 22.294C6.87473 22.734 6.67673 23.1887 6.53006 23.658C6.3834 24.1273 6.31006 24.5453 6.31006 24.912C6.31006 25.044 6.3174 25.176 6.33206 25.308C6.3614 25.44 6.39073 25.5573 6.42006 25.66C5.93606 25.66 5.5914 25.5427 5.38606 25.308C5.1954 25.0587 5.10006 24.758 5.10006 24.406C5.10006 23.9073 5.24673 23.4087 5.54006 22.91C5.8334 22.4113 6.2074 21.9567 6.66206 21.546C7.1314 21.1207 7.6154 20.7833 8.11406 20.534C8.6274 20.2847 9.0894 20.16 9.50006 20.16C9.89606 20.16 10.1601 20.27 10.2921 20.49C10.4387 20.71 10.5121 20.952 10.5121 21.216C10.5121 21.3773 10.4901 21.5387 10.4461 21.7C10.4167 21.8613 10.3801 22.0153 10.3361 22.162L8.62006 27.75C8.8254 27.7353 9.03073 27.728 9.23606 27.728C9.45606 27.7133 9.67606 27.706 9.89606 27.706C10.5854 27.706 11.2381 27.728 11.8541 27.772C12.4847 27.8013 13.0787 27.8453 13.6361 27.904C13.9294 26.9653 14.2154 26.0413 14.4941 25.132C14.7874 24.2227 15.0514 23.4307 15.2861 22.756C15.5354 22.0667 15.7261 21.5827 15.8581 21.304C15.9167 21.1867 15.9974 21.04 16.1001 20.864C16.2027 20.688 16.3347 20.5267 16.4961 20.38C16.6721 20.2333 16.8627 20.16 17.0681 20.16C16.8627 20.7027 16.6281 21.3993 16.3641 22.25C16.1001 23.086 15.8287 24.0027 15.5501 25C15.2861 25.9973 15.0221 26.9947 14.7581 27.992C15.0514 28.0067 15.3301 28.0287 15.5941 28.058C15.8727 28.0727 16.1441 28.08 16.4081 28.08C16.0854 28.4173 15.7701 28.6227 15.4621 28.696C15.1541 28.7547 14.8534 28.784 14.5601 28.784C14.4281 29.3267 14.3034 29.8547 14.1861 30.368C14.0687 30.8667 13.9661 31.3433 13.8781 31.798C13.6141 33.0447 13.4234 34.108 13.3061 34.988C13.2034 35.868 13.1521 36.5793 13.1521 37.122C13.1521 37.298 13.1521 37.4447 13.1521 37.562C13.1667 37.694 13.1814 37.8113 13.1961 37.914C12.6241 37.8553 12.2281 37.694 12.0081 37.43C11.7881 37.166 11.6781 36.7553 11.6781 36.198C11.6781 35.8167 11.7221 35.34 11.8101 34.768C11.8981 34.1813 12.0301 33.5507 12.2061 32.876C12.3234 32.436 12.4847 31.8567 12.6901 31.138C12.8954 30.4047 13.1227 29.6273 13.3721 28.806C12.4774 28.806 11.7294 28.8133 11.1281 28.828C10.5267 28.8427 10.0061 28.8573 9.56606 28.872C9.12606 28.8867 8.68606 28.916 8.24606 28.96C7.98206 29.8107 7.71806 30.654 7.45406 31.49C7.19006 32.326 6.94806 33.096 6.72806 33.8C6.50806 34.4893 6.32473 35.076 6.17806 35.56C6.0314 36.044 5.93606 36.3593 5.89206 36.506C5.7454 37.0047 5.51073 37.364 5.18806 37.584C4.88006 37.804 4.60873 37.914 4.37406 37.914ZM20.0489 37.914C19.5942 37.914 19.1616 37.848 18.7509 37.716C18.3402 37.5987 17.9882 37.3347 17.6949 36.924C17.8416 36.22 18.0176 35.4647 18.2229 34.658C18.4429 33.8367 18.6776 33.0007 18.9269 32.15C19.1762 31.2847 19.4256 30.4413 19.6749 29.62C19.9389 28.784 20.1882 28.0067 20.4229 27.288C20.6576 26.5693 20.8702 25.9387 21.0609 25.396C21.2516 24.8533 21.3982 24.4427 21.5009 24.164C21.5449 24.0467 21.6182 23.878 21.7209 23.658C21.8236 23.4233 21.9482 23.1887 22.0949 22.954C22.2416 22.7193 22.4102 22.5213 22.6009 22.36C22.7916 22.184 22.9969 22.096 23.2169 22.096C23.4222 22.096 23.6276 22.1693 23.8329 22.316C23.3782 23.372 22.9162 24.538 22.4469 25.814C21.9922 27.09 21.5522 28.41 21.1269 29.774C20.7016 31.1233 20.3129 32.4433 19.9609 33.734C19.6089 35.0247 19.3156 36.198 19.0809 37.254C19.2862 37.2833 19.4549 37.3053 19.5869 37.32C19.7336 37.3347 19.8802 37.342 20.0269 37.342C20.9656 37.342 21.8676 37.122 22.7329 36.682C23.6129 36.2567 24.4269 35.67 25.1749 34.922C25.9376 34.1593 26.6049 33.294 27.1769 32.326C27.7489 31.3433 28.1889 30.3093 28.4969 29.224C28.8196 28.124 28.9809 27.0313 28.9809 25.946C28.9809 24.758 28.7902 23.7827 28.4089 23.02C28.0276 22.2427 27.4996 21.6707 26.8249 21.304C26.1502 20.9373 25.3656 20.754 24.4709 20.754C23.5176 20.754 22.6596 20.9447 21.8969 21.326C21.1342 21.7073 20.5329 22.2207 20.0929 22.866C19.6529 23.5113 19.4329 24.2373 19.4329 25.044C19.4329 25.22 19.4402 25.374 19.4549 25.506C19.4842 25.638 19.5136 25.7553 19.5429 25.858C19.0589 25.858 18.7142 25.7407 18.5089 25.506C18.3182 25.2567 18.2229 24.9633 18.2229 24.626C18.2229 24.1127 18.3989 23.5993 18.7509 23.086C19.1176 22.558 19.6162 22.074 20.2469 21.634C20.8922 21.194 21.6329 20.842 22.4689 20.578C23.3049 20.2993 24.1922 20.16 25.1309 20.16C26.4509 20.16 27.5069 20.4313 28.2989 20.974C29.1056 21.502 29.6922 22.2207 30.0589 23.13C30.4256 24.0393 30.6089 25.0587 30.6089 26.188C30.6089 27.464 30.4109 28.6887 30.0149 29.862C29.6189 31.0207 29.0689 32.0913 28.3649 33.074C27.6756 34.042 26.8836 34.8927 25.9889 35.626C25.0942 36.3447 24.1336 36.902 23.1069 37.298C22.0949 37.7087 21.0756 37.914 20.0489 37.914Z" fill="#333333"/>
<path d="M4.37406 37.914L3.38844 37.745L3.18805 38.914H4.37406V37.914ZM4.68206 36.33L3.70586 36.1131L3.70465 36.1187L4.68206 36.33ZM5.12206 34.548L4.15975 34.276L4.15774 34.2832L4.15583 34.2903L5.12206 34.548ZM5.80406 32.216L4.84624 31.9287L5.80406 32.216ZM6.79406 29.092L7.7439 29.4048L8.20584 28.0018L6.73169 28.0939L6.79406 29.092ZM6.06806 29.158L5.95122 28.1648L5.94403 28.1657L6.06806 29.158ZM5.34206 29.246L4.34286 29.206L4.29607 30.376L5.4589 30.2392L5.34206 29.246ZM5.84806 28.388L6.38497 29.2317L6.39433 29.2256L5.84806 28.388ZM7.16806 27.904L7.35395 28.8866L7.93102 28.7774L8.11675 28.2202L7.16806 27.904ZM7.47606 26.958L6.53157 26.6295L6.52718 26.6421L6.52314 26.6548L7.47606 26.958ZM7.82806 25.924L8.77681 26.2402L8.78049 26.2288L7.82806 25.924ZM8.20206 24.824L9.14302 25.1627L9.14705 25.1511L8.20206 24.824ZM8.59806 23.636L7.65632 23.2997L7.65093 23.3147L7.64603 23.33L8.59806 23.636ZM9.03806 22.382L8.09827 22.0403L8.09541 22.0481L8.09269 22.056L9.03806 22.382ZM9.23606 21.788L10.1905 22.0863L10.1931 22.0782L10.1954 22.0702L9.23606 21.788ZM9.28006 20.842L8.44801 21.3967L8.50294 21.4791L8.57296 21.5491L9.28006 20.842ZM8.00406 21.216L8.65769 21.9728L8.66024 21.9706L8.00406 21.216ZM7.12406 22.294L6.26657 21.7795L6.26017 21.7902L6.25404 21.801L7.12406 22.294ZM6.53006 23.658L7.48454 23.9563V23.9563L6.53006 23.658ZM6.33206 25.308L5.33818 25.4184L5.34415 25.4722L5.35588 25.5249L6.33206 25.308ZM6.42006 25.66V26.66H7.74579L7.38159 25.3853L6.42006 25.66ZM5.38606 25.308L4.5917 25.9154L4.61175 25.9417L4.63349 25.9665L5.38606 25.308ZM5.54006 22.91L4.67813 22.403L5.54006 22.91ZM6.66206 21.546L7.33235 22.2881L7.33358 22.287L6.66206 21.546ZM8.11406 20.534L7.67713 19.6344L7.66685 19.6396L8.11406 20.534ZM10.2921 20.49L9.43457 21.0045L9.44681 21.0249L9.46001 21.0447L10.2921 20.49ZM10.4461 21.7L9.4813 21.4369L9.46993 21.4786L9.46219 21.5211L10.4461 21.7ZM10.3361 22.162L11.292 22.4556L11.2939 22.4493L10.3361 22.162ZM8.62006 27.75L7.66412 27.4564L7.23574 28.8514L8.69131 28.7475L8.62006 27.75ZM9.23606 27.728V28.728H9.26936L9.30258 28.7258L9.23606 27.728ZM11.8541 27.772L11.7828 28.7695L11.7952 28.7703L11.8076 28.7709L11.8541 27.772ZM13.6361 27.904L13.5314 28.8985L14.3462 28.9843L14.5905 28.2023L13.6361 27.904ZM14.4941 25.132L13.5424 24.825L13.5401 24.832L13.538 24.839L14.4941 25.132ZM15.2861 22.756L14.3456 22.4158L14.3416 22.4275L15.2861 22.756ZM15.8581 21.304L14.9636 20.8568L14.9589 20.8663L14.9543 20.8759L15.8581 21.304ZM16.1001 20.864L15.2363 20.3601L15.2363 20.3601L16.1001 20.864ZM16.4961 20.38L15.8559 19.6118L15.8393 19.6256L15.8234 19.6401L16.4961 20.38ZM17.0681 20.16L18.0033 20.5139L18.5156 19.16H17.0681V20.16ZM16.3641 22.25L17.3177 22.5511L17.3191 22.5464L16.3641 22.25ZM15.5501 25L14.5869 24.7309L14.5834 24.7441L15.5501 25ZM14.7581 27.992L13.7914 27.7361L13.4756 28.9291L14.7081 28.9908L14.7581 27.992ZM15.5941 28.058L15.4836 29.0519L15.5125 29.0551L15.5415 29.0566L15.5941 28.058ZM16.4081 28.08L17.1307 28.7712L18.7484 27.08H16.4081V28.08ZM15.4621 28.696L15.6492 29.6783L15.6715 29.6741L15.6937 29.6688L15.4621 28.696ZM14.5601 28.784V27.784H13.7741L13.5884 28.5476L14.5601 28.784ZM14.1861 30.368L15.1595 30.597L15.1609 30.5908L14.1861 30.368ZM13.8781 31.798L14.8564 32.0052L14.8582 31.9966L14.8598 31.988L13.8781 31.798ZM13.3061 34.988L12.3148 34.8558L12.3138 34.864L12.3128 34.8721L13.3061 34.988ZM13.1521 37.562H12.1521V37.6174L12.1582 37.6724L13.1521 37.562ZM13.1961 37.914L13.094 38.9088L14.367 39.0393L14.186 37.7726L13.1961 37.914ZM12.0081 37.43L11.2398 38.0702L12.0081 37.43ZM11.8101 34.768L12.7984 34.9201L12.799 34.9163L11.8101 34.768ZM12.2061 32.876L11.2398 32.6183L11.2384 32.6236L12.2061 32.876ZM12.6901 31.138L13.6516 31.4127L13.653 31.4076L12.6901 31.138ZM13.3721 28.806L14.3289 29.0965L14.7207 27.806H13.3721V28.806ZM11.1281 28.828L11.1524 29.8277H11.1524L11.1281 28.828ZM9.56606 28.872L9.59938 29.8714H9.59938L9.56606 28.872ZM8.24606 28.96L8.14656 27.965L7.48736 28.0309L7.291 28.6636L8.24606 28.96ZM6.72806 33.8L7.68074 34.104L7.68254 34.0983L6.72806 33.8ZM6.17806 35.56L7.13509 35.85L6.17806 35.56ZM5.89206 36.506L4.93422 36.2186L4.9327 36.2238L5.89206 36.506ZM5.18806 37.584L4.62473 36.7578L4.61571 36.7639L4.60682 36.7703L5.18806 37.584ZM5.35968 38.083C5.4451 37.5847 5.54499 37.0709 5.65948 36.5413L3.70465 36.1187C3.58447 36.6745 3.47902 37.2166 3.38844 37.745L5.35968 38.083ZM5.65825 36.5469C5.77189 36.0356 5.91501 35.4555 6.0883 34.8057L4.15583 34.2903C3.97711 34.9605 3.82691 35.5684 3.70588 36.1131L5.65825 36.5469ZM6.08437 34.82C6.27322 34.1517 6.49898 33.3797 6.76189 32.5033L4.84624 31.9287C4.58114 32.8123 4.35224 33.5949 4.15975 34.276L6.08437 34.82ZM6.76189 32.5033C7.02259 31.6343 7.34972 30.6019 7.7439 29.4048L5.84423 28.7792C5.4464 29.9875 5.11353 31.0377 4.84624 31.9287L6.76189 32.5033ZM6.73169 28.0939C6.47765 28.1098 6.21745 28.1335 5.95122 28.1648L6.1849 30.1511C6.41734 30.1238 6.64114 30.1035 6.85644 30.0901L6.73169 28.0939ZM5.94403 28.1657C5.7119 28.1947 5.4723 28.2238 5.22522 28.2528L5.4589 30.2392C5.71049 30.2096 5.95489 30.1799 6.1921 30.1503L5.94403 28.1657ZM6.34126 29.286C6.34207 29.2659 6.34452 29.2571 6.34468 29.2566C6.34471 29.2565 6.34359 29.26 6.34093 29.2645C6.33833 29.2689 6.33747 29.2688 6.34204 29.2642C6.34699 29.2593 6.35972 29.2477 6.38494 29.2317L5.31119 27.5443C4.7259 27.9168 4.37127 28.4958 4.34286 29.206L6.34126 29.286ZM6.39433 29.2256C6.58965 29.0982 6.8951 28.9734 7.35395 28.8866L6.98217 26.9214C6.35569 27.04 5.78114 27.2378 5.30179 27.5504L6.39433 29.2256ZM8.11675 28.2202C8.22092 27.9077 8.325 27.588 8.42899 27.2612L6.52314 26.6548C6.4218 26.9733 6.32054 27.2843 6.21938 27.5878L8.11675 28.2202ZM8.42056 27.2865C8.53937 26.9449 8.6581 26.5962 8.77675 26.2402L6.87938 25.6078C6.76336 25.9558 6.64742 26.2964 6.53157 26.6295L8.42056 27.2865ZM8.78049 26.2288C8.89413 25.8736 9.01495 25.5183 9.14295 25.1627L7.26118 24.4853C7.12518 24.8631 6.99666 25.241 6.87564 25.6192L8.78049 26.2288ZM9.14705 25.1511C9.28163 24.7623 9.41598 24.3593 9.55009 23.942L7.64603 23.33C7.51615 23.7341 7.38649 24.123 7.25708 24.4969L9.14705 25.1511ZM9.5398 23.9723C9.68774 23.5581 9.83561 23.1367 9.98344 22.708L8.09269 22.056C7.94718 22.478 7.80172 22.8925 7.65632 23.2997L9.5398 23.9723ZM9.97786 22.7237C10.0434 22.5434 10.1144 22.3299 10.1905 22.0863L8.28158 21.4897C8.21105 21.7154 8.15002 21.898 8.09827 22.0403L9.97786 22.7237ZM10.1954 22.0702C10.291 21.7453 10.3461 21.415 10.3461 21.084H8.34606C8.34606 21.193 8.32782 21.332 8.2767 21.5058L10.1954 22.0702ZM10.3461 21.084C10.3461 20.9113 10.3277 20.4755 9.98717 20.1349L8.57296 21.5491C8.43672 21.4129 8.38443 21.2706 8.3648 21.1986C8.35436 21.1603 8.34999 21.1307 8.34805 21.1133C8.34609 21.0956 8.34606 21.0853 8.34606 21.084H10.3461ZM10.1121 20.2873C9.90464 19.9761 9.60559 19.8673 9.46068 19.8277C9.29998 19.7839 9.148 19.776 9.03806 19.776V21.776C9.06012 21.776 9.01447 21.7791 8.93444 21.7573C8.8702 21.7397 8.62615 21.6639 8.44801 21.3967L10.1121 20.2873ZM9.03806 19.776C8.38541 19.776 7.81663 20.0538 7.34788 20.4614L8.66024 21.9706C8.86616 21.7915 8.98672 21.776 9.03806 21.776V19.776ZM7.35044 20.4592C6.93294 20.8197 6.57446 21.2664 6.26657 21.7795L7.98156 22.8085C8.20167 22.4416 8.42985 22.1696 8.65768 21.9728L7.35044 20.4592ZM6.25404 21.801C5.97072 22.301 5.74401 22.8208 5.57558 23.3597L7.48454 23.9563C7.60945 23.5566 7.77873 23.167 7.99408 22.787L6.25404 21.801ZM5.57558 23.3597C5.40834 23.8949 5.31006 24.4164 5.31006 24.912H7.31006C7.31006 24.6743 7.35845 24.3598 7.48454 23.9563L5.57558 23.3597ZM5.31006 24.912C5.31006 25.0811 5.31946 25.25 5.33818 25.4184L7.32595 25.1976C7.31533 25.102 7.31006 25.0069 7.31006 24.912H5.31006ZM5.35588 25.5249C5.38845 25.6715 5.42254 25.8087 5.45854 25.9347L7.38159 25.3853C7.35892 25.306 7.33434 25.2085 7.30825 25.0911L5.35588 25.5249ZM6.42006 24.66C6.25382 24.66 6.16157 24.6392 6.12083 24.6253C6.08661 24.6137 6.10755 24.614 6.13864 24.6495L4.63349 25.9665C5.11275 26.5142 5.8062 26.66 6.42006 26.66V24.66ZM6.18042 24.7005C6.13923 24.6467 6.10006 24.5665 6.10006 24.406H4.10006C4.10006 24.9495 4.25157 25.4707 4.5917 25.9154L6.18042 24.7005ZM6.10006 24.406C6.10006 24.1125 6.18439 23.7869 6.402 23.417L4.67813 22.403C4.30907 23.0304 4.10006 23.7022 4.10006 24.406H6.10006ZM6.402 23.417C6.64081 23.011 6.94868 22.6346 7.33235 22.2881L5.99178 20.8039C5.46611 21.2787 5.02598 21.8116 4.67813 22.403L6.402 23.417ZM7.33358 22.287C7.74447 21.9146 8.15419 21.632 8.56128 21.4284L7.66685 19.6396C7.0766 19.9347 6.51832 20.3267 5.99054 20.805L7.33358 22.287ZM8.55097 21.4335C8.97803 21.2261 9.28786 21.16 9.50006 21.16V19.16C8.89094 19.16 8.27676 19.3433 7.67716 19.6345L8.55097 21.4335ZM9.50006 21.16C9.55369 21.16 9.58855 21.1638 9.60791 21.167C9.62724 21.1702 9.62593 21.172 9.61045 21.1656C9.59401 21.1587 9.56351 21.1433 9.52813 21.1138C9.49188 21.0836 9.45954 21.0461 9.43457 21.0045L11.1496 19.9755C10.7522 19.3133 10.0437 19.16 9.50006 19.16V21.16ZM9.46001 21.0447C9.49735 21.1007 9.51206 21.1497 9.51206 21.216H11.5121C11.5121 20.7542 11.3801 20.3193 11.1241 19.9353L9.46001 21.0447ZM9.51206 21.216C9.51206 21.2852 9.50277 21.3582 9.4813 21.4369L11.4108 21.9631C11.4774 21.7192 11.5121 21.4694 11.5121 21.216H9.51206ZM9.46219 21.5211C9.43905 21.6484 9.41082 21.766 9.37824 21.8747L11.2939 22.4493C11.3493 22.2646 11.3944 22.0743 11.4299 21.8789L9.46219 21.5211ZM9.38012 21.8684L7.66412 27.4564L9.576 28.0436L11.292 22.4556L9.38012 21.8684ZM8.69131 28.7475C8.87299 28.7345 9.05456 28.728 9.23606 28.728V26.728C9.0069 26.728 8.7778 26.7362 8.54882 26.7525L8.69131 28.7475ZM9.30258 28.7258C9.50049 28.7126 9.6983 28.706 9.89606 28.706V26.706C9.65382 26.706 9.41164 26.7141 9.16954 26.7302L9.30258 28.7258ZM9.89606 28.706C10.5643 28.706 11.1931 28.7273 11.7828 28.7695L11.9253 26.7745C11.2831 26.7287 10.6065 26.706 9.89606 26.706V28.706ZM11.8076 28.7709C12.4212 28.7995 12.9956 28.8421 13.5314 28.8985L13.7407 26.9095C13.1618 26.8486 12.5483 26.8032 11.9005 26.7731L11.8076 28.7709ZM14.5905 28.2023C14.8844 27.2619 15.171 26.3362 15.4502 25.425L13.538 24.839C13.2598 25.7465 12.9744 26.6688 12.6816 27.6057L14.5905 28.2023ZM15.4458 25.439C15.7375 24.5346 15.999 23.7501 16.2306 23.0845L14.3416 22.4275C14.1037 23.1112 13.8373 23.9107 13.5424 24.825L15.4458 25.439ZM16.2264 23.0961C16.4756 22.4073 16.6523 21.9634 16.7618 21.7321L14.9543 20.8759C14.7999 21.202 14.5952 21.726 14.3457 22.4159L16.2264 23.0961ZM16.7525 21.7512C16.7978 21.6605 16.8668 21.5342 16.9638 21.3679L15.2363 20.3601C15.128 20.5458 15.0356 20.7128 14.9636 20.8568L16.7525 21.7512ZM16.9638 21.3679C17.0117 21.2858 17.0775 21.2029 17.1687 21.1199L15.8234 19.6401C15.592 19.8504 15.3937 20.0902 15.2363 20.3601L16.9638 21.3679ZM17.1362 21.1482C17.1503 21.1365 17.1484 21.1413 17.13 21.1483C17.1212 21.1517 17.1106 21.1549 17.0989 21.157C17.0872 21.1592 17.0766 21.16 17.0681 21.16V19.16C16.6015 19.16 16.1894 19.3338 15.8559 19.6118L17.1362 21.1482ZM16.1328 19.8061C15.9176 20.3749 15.6762 21.0926 15.409 21.9536L17.3191 22.5464C17.5799 21.7061 17.8079 21.0304 18.0033 20.5139L16.1328 19.8061ZM15.4105 21.9489C15.1426 22.7972 14.8681 23.7247 14.587 24.7309L16.5132 25.2691C16.7894 24.2806 17.0575 23.3748 17.3176 22.5511L15.4105 21.9489ZM14.5834 24.7441C14.5772 24.7673 14.5648 24.8144 14.5586 24.8376C14.5525 24.8608 14.54 24.9079 14.5339 24.9311C14.5277 24.9543 14.5153 25.0014 14.5091 25.0246C14.503 25.0478 14.4905 25.0949 14.4844 25.1181C14.4782 25.1413 14.4658 25.1884 14.4596 25.2116C14.4535 25.2348 14.441 25.2819 14.4349 25.3051C14.4287 25.3283 14.4163 25.3754 14.4101 25.3986C14.404 25.4218 14.3915 25.4689 14.3854 25.4921C14.3792 25.5153 14.3668 25.5624 14.3606 25.5856C14.3545 25.6088 14.342 25.6559 14.3359 25.6791C14.3297 25.7023 14.3173 25.7494 14.3111 25.7726C14.305 25.7958 14.2925 25.8429 14.2864 25.8661C14.2802 25.8893 14.2678 25.9364 14.2616 25.9596C14.2555 25.9828 14.243 26.0299 14.2369 26.0531C14.2307 26.0763 14.2183 26.1234 14.2121 26.1466C14.206 26.1698 14.1935 26.2169 14.1874 26.2401C14.1228 26.4839 14.0539 26.7443 13.9894 26.9881C13.9248 27.2319 13.8559 27.4923 13.7914 27.7361L15.7248 28.2479C15.7265 28.2412 15.7477 28.1611 15.7495 28.1544C15.7513 28.1477 15.7725 28.0676 15.7743 28.0609C15.7775 28.0487 15.7958 27.9796 15.799 27.9674C15.8052 27.9442 15.8176 27.8971 15.8238 27.8739C15.8299 27.8507 15.8424 27.8036 15.8485 27.7804C15.8547 27.7572 15.8671 27.7101 15.8733 27.6869C15.8794 27.6637 15.8919 27.6166 15.898 27.5934C15.9042 27.5702 15.9166 27.5231 15.9228 27.4999C15.9289 27.4767 15.9414 27.4296 15.9475 27.4064C15.9537 27.3832 15.9661 27.3361 15.9723 27.3129C15.9784 27.2897 15.9909 27.2426 15.997 27.2194C16.0032 27.1962 16.0156 27.1491 16.0218 27.1259C16.0279 27.1027 16.0404 27.0556 16.0465 27.0324C16.0527 27.0092 16.0651 26.9621 16.0713 26.9389C16.0774 26.9157 16.0899 26.8686 16.096 26.8454C16.1022 26.8222 16.1146 26.7751 16.1208 26.7519C16.1853 26.5081 16.2542 26.2477 16.3188 26.0039C16.3833 25.7601 16.4522 25.4997 16.5168 25.2559L14.5834 24.7441ZM14.7081 28.9908C14.9833 29.0045 15.2417 29.025 15.4836 29.0519L15.7045 27.0641C15.4184 27.0323 15.1195 27.0088 14.808 26.9932L14.7081 28.9908ZM15.5415 29.0566C15.8367 29.0722 16.1256 29.08 16.4081 29.08V27.08C16.1626 27.08 15.9088 27.0732 15.6466 27.0594L15.5415 29.0566ZM15.6854 27.3888C15.4364 27.6491 15.282 27.7109 15.2304 27.7232L15.6937 29.6688C16.2581 29.5344 16.7344 29.1856 17.1307 28.7712L15.6854 27.3888ZM15.275 27.7137C15.0244 27.7614 14.7865 27.784 14.5601 27.784V29.784C14.9203 29.784 15.2837 29.748 15.6492 29.6783L15.275 27.7137ZM13.5884 28.5476C13.4554 29.0945 13.3296 29.6271 13.2112 30.1452L15.1609 30.5908C15.2772 30.0823 15.4008 29.5588 15.5317 29.0204L13.5884 28.5476ZM13.2126 30.139C13.0926 30.6492 12.9871 31.139 12.8963 31.608L14.8598 31.988C14.9451 31.5477 15.0449 31.0841 15.1595 30.597L13.2126 30.139ZM12.8998 31.5908C12.6326 32.8526 12.4366 33.9425 12.3148 34.8558L14.2973 35.1202C14.4102 34.2735 14.5956 33.2367 14.8564 32.0052L12.8998 31.5908ZM12.3128 34.8721C12.2081 35.7698 12.1521 36.5242 12.1521 37.122H14.1521C14.1521 36.6345 14.1987 35.9662 14.2993 35.1039L12.3128 34.8721ZM12.1521 37.122C12.1521 37.1223 12.1521 37.1227 12.1521 37.123C12.1521 37.1234 12.1521 37.1237 12.1521 37.1241C12.1521 37.1244 12.1521 37.1247 12.1521 37.1251C12.1521 37.1254 12.1521 37.1258 12.1521 37.1261C12.1521 37.1265 12.1521 37.1268 12.1521 37.1271C12.1521 37.1275 12.1521 37.1278 12.1521 37.1282C12.1521 37.1285 12.1521 37.1289 12.1521 37.1292C12.1521 37.1295 12.1521 37.1299 12.1521 37.1302C12.1521 37.1306 12.1521 37.1309 12.1521 37.1313C12.1521 37.1316 12.1521 37.1319 12.1521 37.1323C12.1521 37.1326 12.1521 37.133 12.1521 37.1333C12.1521 37.1336 12.1521 37.134 12.1521 37.1343C12.1521 37.1347 12.1521 37.135 12.1521 37.1353C12.1521 37.1357 12.1521 37.136 12.1521 37.1364C12.1521 37.1367 12.1521 37.1371 12.1521 37.1374C12.1521 37.1377 12.1521 37.1381 12.1521 37.1384C12.1521 37.1388 12.1521 37.1391 12.1521 37.1394C12.1521 37.1398 12.1521 37.1401 12.1521 37.1405C12.1521 37.1408 12.1521 37.1411 12.1521 37.1415C12.1521 37.1418 12.1521 37.1422 12.1521 37.1425C12.1521 37.1428 12.1521 37.1432 12.1521 37.1435C12.1521 37.1438 12.1521 37.1442 12.1521 37.1445C12.1521 37.1449 12.1521 37.1452 12.1521 37.1455C12.1521 37.1459 12.1521 37.1462 12.1521 37.1466C12.1521 37.1469 12.1521 37.1472 12.1521 37.1476C12.1521 37.1479 12.1521 37.1482 12.1521 37.1486C12.1521 37.1489 12.1521 37.1493 12.1521 37.1496C12.1521 37.1499 12.1521 37.1503 12.1521 37.1506C12.1521 37.1509 12.1521 37.1513 12.1521 37.1516C12.1521 37.152 12.1521 37.1523 12.1521 37.1526C12.1521 37.153 12.1521 37.1533 12.1521 37.1536C12.1521 37.154 12.1521 37.1543 12.1521 37.1547C12.1521 37.155 12.1521 37.1553 12.1521 37.1557C12.1521 37.156 12.1521 37.1563 12.1521 37.1567C12.1521 37.157 12.1521 37.1573 12.1521 37.1577C12.1521 37.158 12.1521 37.1584 12.1521 37.1587C12.1521 37.159 12.1521 37.1594 12.1521 37.1597C12.1521 37.16 12.1521 37.1604 12.1521 37.1607C12.1521 37.161 12.1521 37.1614 12.1521 37.1617C12.1521 37.162 12.1521 37.1624 12.1521 37.1627C12.1521 37.163 12.1521 37.1634 12.1521 37.1637C12.1521 37.1641 12.1521 37.1644 12.1521 37.1647C12.1521 37.1651 12.1521 37.1654 12.1521 37.1657C12.1521 37.1661 12.1521 37.1664 12.1521 37.1667C12.1521 37.1671 12.1521 37.1674 12.1521 37.1677C12.1521 37.1681 12.1521 37.1684 12.1521 37.1687C12.1521 37.1691 12.1521 37.1694 12.1521 37.1697C12.1521 37.1701 12.1521 37.1704 12.1521 37.1707C12.1521 37.1711 12.1521 37.1714 12.1521 37.1717C12.1521 37.1721 12.1521 37.1724 12.1521 37.1727C12.1521 37.1731 12.1521 37.1734 12.1521 37.1737C12.1521 37.1741 12.1521 37.1744 12.1521 37.1747C12.1521 37.175 12.1521 37.1754 12.1521 37.1757C12.1521 37.176 12.1521 37.1764 12.1521 37.1767C12.1521 37.177 12.1521 37.1774 12.1521 37.1777C12.1521 37.178 12.1521 37.1784 12.1521 37.1787C12.1521 37.179 12.1521 37.1794 12.1521 37.1797C12.1521 37.18 12.1521 37.1804 12.1521 37.1807C12.1521 37.181 12.1521 37.1813 12.1521 37.1817C12.1521 37.182 12.1521 37.1823 12.1521 37.1827C12.1521 37.183 12.1521 37.1833 12.1521 37.1837C12.1521 37.184 12.1521 37.1843 12.1521 37.1846C12.1521 37.185 12.1521 37.1853 12.1521 37.1856C12.1521 37.186 12.1521 37.1863 12.1521 37.1866C12.1521 37.187 12.1521 37.1873 12.1521 37.1876C12.1521 37.1879 12.1521 37.1883 12.1521 37.1886C12.1521 37.1889 12.1521 37.1893 12.1521 37.1896C12.1521 37.1899 12.1521 37.1902 12.1521 37.1906C12.1521 37.1909 12.1521 37.1912 12.1521 37.1916C12.1521 37.1919 12.1521 37.1922 12.1521 37.1925C12.1521 37.1929 12.1521 37.1932 12.1521 37.1935C12.1521 37.1939 12.1521 37.1942 12.1521 37.1945C12.1521 37.1948 12.1521 37.1952 12.1521 37.1955C12.1521 37.1958 12.1521 37.1961 12.1521 37.1965C12.1521 37.1968 12.1521 37.1971 12.1521 37.1975C12.1521 37.1978 12.1521 37.1981 12.1521 37.1984C12.1521 37.1988 12.1521 37.1991 12.1521 37.1994C12.1521 37.1997 12.1521 37.2001 12.1521 37.2004C12.1521 37.2007 12.1521 37.201 12.1521 37.2014C12.1521 37.2017 12.1521 37.202 12.1521 37.2024C12.1521 37.2027 12.1521 37.203 12.1521 37.2033C12.1521 37.2037 12.1521 37.204 12.1521 37.2043C12.1521 37.2046 12.1521 37.205 12.1521 37.2053C12.1521 37.2056 12.1521 37.2059 12.1521 37.2063C12.1521 37.2066 12.1521 37.2069 12.1521 37.2072C12.1521 37.2076 12.1521 37.2079 12.1521 37.2082C12.1521 37.2085 12.1521 37.2089 12.1521 37.2092C12.1521 37.2095 12.1521 37.2098 12.1521 37.2101C12.1521 37.2105 12.1521 37.2108 12.1521 37.2111C12.1521 37.2114 12.1521 37.2118 12.1521 37.2121C12.1521 37.2124 12.1521 37.2127 12.1521 37.2131C12.1521 37.2134 12.1521 37.2137 12.1521 37.214C12.1521 37.2144 12.1521 37.2147 12.1521 37.215C12.1521 37.2153 12.1521 37.2156 12.1521 37.216C12.1521 37.2163 12.1521 37.2166 12.1521 37.2169C12.1521 37.2173 12.1521 37.2176 12.1521 37.2179C12.1521 37.2182 12.1521 37.2186 12.1521 37.2189C12.1521 37.2192 12.1521 37.2195 12.1521 37.2198C12.1521 37.2202 12.1521 37.2205 12.1521 37.2208C12.1521 37.2211 12.1521 37.2214 12.1521 37.2218C12.1521 37.2221 12.1521 37.2224 12.1521 37.2227C12.1521 37.2231 12.1521 37.2234 12.1521 37.2237C12.1521 37.224 12.1521 37.2243 12.1521 37.2247C12.1521 37.225 12.1521 37.2253 12.1521 37.2256C12.1521 37.2259 12.1521 37.2263 12.1521 37.2266C12.1521 37.2269 12.1521 37.2272 12.1521 37.2275C12.1521 37.2279 12.1521 37.2282 12.1521 37.2285C12.1521 37.2288 12.1521 37.2291 12.1521 37.2295C12.1521 37.2298 12.1521 37.2301 12.1521 37.2304C12.1521 37.2307 12.1521 37.2311 12.1521 37.2314C12.1521 37.2317 12.1521 37.232 12.1521 37.2323C12.1521 37.2327 12.1521 37.233 12.1521 37.2333C12.1521 37.2336 12.1521 37.2339 12.1521 37.2342C12.1521 37.2346 12.1521 37.2349 12.1521 37.2352C12.1521 37.2355 12.1521 37.2358 12.1521 37.2362C12.1521 37.2365 12.1521 37.2368 12.1521 37.2371C12.1521 37.2374 12.1521 37.2377 12.1521 37.2381C12.1521 37.2384 12.1521 37.2387 12.1521 37.239C12.1521 37.2393 12.1521 37.2396 12.1521 37.24C12.1521 37.2403 12.1521 37.2406 12.1521 37.2409C12.1521 37.2412 12.1521 37.2416 12.1521 37.2419C12.1521 37.2422 12.1521 37.2425 12.1521 37.2428C12.1521 37.2431 12.1521 37.2434 12.1521 37.2438C12.1521 37.2441 12.1521 37.2444 12.1521 37.2447C12.1521 37.245 12.1521 37.2453 12.1521 37.2457C12.1521 37.246 12.1521 37.2463 12.1521 37.2466C12.1521 37.2469 12.1521 37.2472 12.1521 37.2476C12.1521 37.2479 12.1521 37.2482 12.1521 37.2485C12.1521 37.2488 12.1521 37.2491 12.1521 37.2494C12.1521 37.2498 12.1521 37.2501 12.1521 37.2504C12.1521 37.2507 12.1521 37.251 12.1521 37.2513C12.1521 37.2516 12.1521 37.252 12.1521 37.2523C12.1521 37.2526 12.1521 37.2529 12.1521 37.2532C12.1521 37.2535 12.1521 37.2538 12.1521 37.2542C12.1521 37.2545 12.1521 37.2548 12.1521 37.2551C12.1521 37.2554 12.1521 37.2557 12.1521 37.256C12.1521 37.2564 12.1521 37.2567 12.1521 37.257C12.1521 37.2573 12.1521 37.2576 12.1521 37.2579C12.1521 37.2582 12.1521 37.2585 12.1521 37.2589C12.1521 37.2592 12.1521 37.2595 12.1521 37.2598C12.1521 37.2601 12.1521 37.2604 12.1521 37.2607C12.1521 37.261 12.1521 37.2614 12.1521 37.2617C12.1521 37.262 12.1521 37.2623 12.1521 37.2626C12.1521 37.2629 12.1521 37.2632 12.1521 37.2635C12.1521 37.2639 12.1521 37.2642 12.1521 37.2645C12.1521 37.2648 12.1521 37.2651 12.1521 37.2654C12.1521 37.2657 12.1521 37.266 12.1521 37.2663C12.1521 37.2667 12.1521 37.267 12.1521 37.2673C12.1521 37.2676 12.1521 37.2679 12.1521 37.2682C12.1521 37.2685 12.1521 37.2688 12.1521 37.2691C12.1521 37.2694 12.1521 37.2698 12.1521 37.2701C12.1521 37.2704 12.1521 37.2707 12.1521 37.271C12.1521 37.2713 12.1521 37.2716 12.1521 37.2719C12.1521 37.2722 12.1521 37.2725 12.1521 37.2729C12.1521 37.2732 12.1521 37.2735 12.1521 37.2738C12.1521 37.2741 12.1521 37.2744 12.1521 37.2747C12.1521 37.275 12.1521 37.2753 12.1521 37.2756C12.1521 37.2759 12.1521 37.2762 12.1521 37.2766C12.1521 37.2769 12.1521 37.2772 12.1521 37.2775C12.1521 37.2778 12.1521 37.2781 12.1521 37.2784C12.1521 37.2787 12.1521 37.279 12.1521 37.2793C12.1521 37.2796 12.1521 37.2799 12.1521 37.2803C12.1521 37.2806 12.1521 37.2809 12.1521 37.2812C12.1521 37.2815 12.1521 37.2818 12.1521 37.2821C12.1521 37.2824 12.1521 37.2827 12.1521 37.283C12.1521 37.2833 12.1521 37.2836 12.1521 37.2839C12.1521 37.2842 12.1521 37.2845 12.1521 37.2849C12.1521 37.2852 12.1521 37.2855 12.1521 37.2858C12.1521 37.2861 12.1521 37.2864 12.1521 37.2867C12.1521 37.287 12.1521 37.2873 12.1521 37.2876C12.1521 37.2879 12.1521 37.2882 12.1521 37.2885C12.1521 37.2888 12.1521 37.2891 12.1521 37.2894C12.1521 37.2897 12.1521 37.2901 12.1521 37.2904C12.1521 37.2907 12.1521 37.291 12.1521 37.2913C12.1521 37.2916 12.1521 37.2919 12.1521 37.2922C12.1521 37.2925 12.1521 37.2928 12.1521 37.2931C12.1521 37.2934 12.1521 37.2937 12.1521 37.294C12.1521 37.2943 12.1521 37.2946 12.1521 37.2949C12.1521 37.2952 12.1521 37.2955 12.1521 37.2958C12.1521 37.2961 12.1521 37.2964 12.1521 37.2967C12.1521 37.2971 12.1521 37.2974 12.1521 37.2977C12.1521 37.298 12.1521 37.2983 12.1521 37.2986C12.1521 37.2989 12.1521 37.2992 12.1521 37.2995C12.1521 37.2998 12.1521 37.3001 12.1521 37.3004C12.1521 37.3007 12.1521 37.301 12.1521 37.3013C12.1521 37.3016 12.1521 37.3019 12.1521 37.3022C12.1521 37.3025 12.1521 37.3028 12.1521 37.3031C12.1521 37.3034 12.1521 37.3037 12.1521 37.304C12.1521 37.3043 12.1521 37.3046 12.1521 37.3049C12.1521 37.3052 12.1521 37.3055 12.1521 37.3058C12.1521 37.3061 12.1521 37.3064 12.1521 37.3067C12.1521 37.307 12.1521 37.3073 12.1521 37.3076C12.1521 37.3079 12.1521 37.3082 12.1521 37.3085C12.1521 37.3088 12.1521 37.3091 12.1521 37.3094C12.1521 37.3097 12.1521 37.31 12.1521 37.3103C12.1521 37.3106 12.1521 37.3109 12.1521 37.3112C12.1521 37.3115 12.1521 37.3118 12.1521 37.3121C12.1521 37.3124 12.1521 37.3127 12.1521 37.313C12.1521 37.3133 12.1521 37.3136 12.1521 37.3139C12.1521 37.3142 12.1521 37.3145 12.1521 37.3148C12.1521 37.3151 12.1521 37.3154 12.1521 37.3157C12.1521 37.316 12.1521 37.3163 12.1521 37.3166C12.1521 37.3169 12.1521 37.3172 12.1521 37.3175C12.1521 37.3178 12.1521 37.3181 12.1521 37.3184C12.1521 37.3187 12.1521 37.319 12.1521 37.3193C12.1521 37.3196 12.1521 37.3199 12.1521 37.3202C12.1521 37.3205 12.1521 37.3208 12.1521 37.3211C12.1521 37.3214 12.1521 37.3217 12.1521 37.322C12.1521 37.3223 12.1521 37.3226 12.1521 37.3229C12.1521 37.3232 12.1521 37.3235 12.1521 37.3238C12.1521 37.3241 12.1521 37.3244 12.1521 37.3246C12.1521 37.3249 12.1521 37.3252 12.1521 37.3255C12.1521 37.3258 12.1521 37.3261 12.1521 37.3264C12.1521 37.3267 12.1521 37.327 12.1521 37.3273C12.1521 37.3276 12.1521 37.3279 12.1521 37.3282C12.1521 37.3285 12.1521 37.3288 12.1521 37.3291C12.1521 37.3294 12.1521 37.3297 12.1521 37.33C12.1521 37.3303 12.1521 37.3306 12.1521 37.3309C12.1521 37.3312 12.1521 37.3314 12.1521 37.3317C12.1521 37.332 12.1521 37.3323 12.1521 37.3326C12.1521 37.3329 12.1521 37.3332 12.1521 37.3335C12.1521 37.3338 12.1521 37.3341 12.1521 37.3344C12.1521 37.3347 12.1521 37.335 12.1521 37.3353C12.1521 37.3356 12.1521 37.3359 12.1521 37.3362C12.1521 37.3365 12.1521 37.3367 12.1521 37.337C12.1521 37.3373 12.1521 37.3376 12.1521 37.3379C12.1521 37.3382 12.1521 37.3385 12.1521 37.3388C12.1521 37.3391 12.1521 37.3394 12.1521 37.3397C12.1521 37.34 12.1521 37.3403 12.1521 37.3406C12.1521 37.3408 12.1521 37.3411 12.1521 37.3414C12.1521 37.3417 12.1521 37.342 12.1521 37.3423C12.1521 37.3426 12.1521 37.3429 12.1521 37.3432C12.1521 37.3435 12.1521 37.3438 12.1521 37.3441C12.1521 37.3443 12.1521 37.3446 12.1521 37.3449C12.1521 37.3452 12.1521 37.3455 12.1521 37.3458C12.1521 37.3461 12.1521 37.3464 12.1521 37.3467C12.1521 37.347 12.1521 37.3473 12.1521 37.3476C12.1521 37.3478 12.1521 37.3481 12.1521 37.3484C12.1521 37.3487 12.1521 37.349 12.1521 37.3493C12.1521 37.3496 12.1521 37.3499 12.1521 37.3502C12.1521 37.3505 12.1521 37.3507 12.1521 37.351C12.1521 37.3513 12.1521 37.3516 12.1521 37.3519C12.1521 37.3522 12.1521 37.3525 12.1521 37.3528C12.1521 37.3531 12.1521 37.3533 12.1521 37.3536C12.1521 37.3539 12.1521 37.3542 12.1521 37.3545C12.1521 37.3548 12.1521 37.3551 12.1521 37.3554C12.1521 37.3557 12.1521 37.3559 12.1521 37.3562C12.1521 37.3565 12.1521 37.3568 12.1521 37.3571C12.1521 37.3574 12.1521 37.3577 12.1521 37.358C12.1521 37.3583 12.1521 37.3585 12.1521 37.3588C12.1521 37.3591 12.1521 37.3594 12.1521 37.3597C12.1521 37.36 12.1521 37.3603 12.1521 37.3606C12.1521 37.3608 12.1521 37.3611 12.1521 37.3614C12.1521 37.3617 12.1521 37.362 12.1521 37.3623C12.1521 37.3626 12.1521 37.3629 12.1521 37.3631C12.1521 37.3634 12.1521 37.3637 12.1521 37.364C12.1521 37.3643 12.1521 37.3646 12.1521 37.3649C12.1521 37.3651 12.1521 37.3654 12.1521 37.3657C12.1521 37.366 12.1521 37.3663 12.1521 37.3666C12.1521 37.3669 12.1521 37.3671 12.1521 37.3674C12.1521 37.3677 12.1521 37.368 12.1521 37.3683C12.1521 37.3686 12.1521 37.3689 12.1521 37.3691C12.1521 37.3694 12.1521 37.3697 12.1521 37.37C12.1521 37.3703 12.1521 37.3706 12.1521 37.3709C12.1521 37.3711 12.1521 37.3714 12.1521 37.3717C12.1521 37.372 12.1521 37.3723 12.1521 37.3726C12.1521 37.3728 12.1521 37.3731 12.1521 37.3734C12.1521 37.3737 12.1521 37.374 12.1521 37.3743C12.1521 37.3745 12.1521 37.3748 12.1521 37.3751C12.1521 37.3754 12.1521 37.3757 12.1521 37.376C12.1521 37.3762 12.1521 37.3765 12.1521 37.3768C12.1521 37.3771 12.1521 37.3774 12.1521 37.3777C12.1521 37.3779 12.1521 37.3782 12.1521 37.3785C12.1521 37.3788 12.1521 37.3791 12.1521 37.3794C12.1521 37.3796 12.1521 37.3799 12.1521 37.3802C12.1521 37.3805 12.1521 37.3808 12.1521 37.3811C12.1521 37.3813 12.1521 37.3816 12.1521 37.3819C12.1521 37.3822 12.1521 37.3825 12.1521 37.3827C12.1521 37.383 12.1521 37.3833 12.1521 37.3836C12.1521 37.3839 12.1521 37.3842 12.1521 37.3844C12.1521 37.3847 12.1521 37.385 12.1521 37.3853C12.1521 37.3856 12.1521 37.3858 12.1521 37.3861C12.1521 37.3864 12.1521 37.3867 12.1521 37.387C12.1521 37.3872 12.1521 37.3875 12.1521 37.3878C12.1521 37.3881 12.1521 37.3884 12.1521 37.3886C12.1521 37.3889 12.1521 37.3892 12.1521 37.3895C12.1521 37.3898 12.1521 37.39 12.1521 37.3903C12.1521 37.3906 12.1521 37.3909 12.1521 37.3912C12.1521 37.3914 12.1521 37.3917 12.1521 37.392C12.1521 37.3923 12.1521 37.3926 12.1521 37.3928C12.1521 37.3931 12.1521 37.3934 12.1521 37.3937C12.1521 37.3939 12.1521 37.3942 12.1521 37.3945C12.1521 37.3948 12.1521 37.3951 12.1521 37.3953C12.1521 37.3956 12.1521 37.3959 12.1521 37.3962C12.1521 37.3965 12.1521 37.3967 12.1521 37.397C12.1521 37.3973 12.1521 37.3976 12.1521 37.3978C12.1521 37.3981 12.1521 37.3984 12.1521 37.3987C12.1521 37.3989 12.1521 37.3992 12.1521 37.3995C12.1521 37.3998 12.1521 37.4001 12.1521 37.4003C12.1521 37.4006 12.1521 37.4009 12.1521 37.4012C12.1521 37.4014 12.1521 37.4017 12.1521 37.402C12.1521 37.4023 12.1521 37.4025 12.1521 37.4028C12.1521 37.4031 12.1521 37.4034 12.1521 37.4036C12.1521 37.4039 12.1521 37.4042 12.1521 37.4045C12.1521 37.4048 12.1521 37.405 12.1521 37.4053C12.1521 37.4056 12.1521 37.4059 12.1521 37.4061C12.1521 37.4064 12.1521 37.4067 12.1521 37.407C12.1521 37.4072 12.1521 37.4075 12.1521 37.4078C12.1521 37.4081 12.1521 37.4083 12.1521 37.4086C12.1521 37.4089 12.1521 37.4092 12.1521 37.4094C12.1521 37.4097 12.1521 37.41 12.1521 37.4102C12.1521 37.4105 12.1521 37.4108 12.1521 37.4111C12.1521 37.4113 12.1521 37.4116 12.1521 37.4119C12.1521 37.4122 12.1521 37.4124 12.1521 37.4127C12.1521 37.413 12.1521 37.4133 12.1521 37.4135C12.1521 37.4138 12.1521 37.4141 12.1521 37.4144C12.1521 37.4146 12.1521 37.4149 12.1521 37.4152C12.1521 37.4154 12.1521 37.4157 12.1521 37.416C12.1521 37.4163 12.1521 37.4165 12.1521 37.4168C12.1521 37.4171 12.1521 37.4174 12.1521 37.4176C12.1521 37.4179 12.1521 37.4182 12.1521 37.4184C12.1521 37.4187 12.1521 37.419 12.1521 37.4193C12.1521 37.4195 12.1521 37.4198 12.1521 37.4201C12.1521 37.4203 12.1521 37.4206 12.1521 37.4209C12.1521 37.4212 12.1521 37.4214 12.1521 37.4217C12.1521 37.422 12.1521 37.4222 12.1521 37.4225C12.1521 37.4228 12.1521 37.4231 12.1521 37.4233C12.1521 37.4236 12.1521 37.4239 12.1521 37.4241C12.1521 37.4244 12.1521 37.4247 12.1521 37.4249C12.1521 37.4252 12.1521 37.4255 12.1521 37.4258C12.1521 37.426 12.1521 37.4263 12.1521 37.4266C12.1521 37.4268 12.1521 37.4271 12.1521 37.4274C12.1521 37.4276 12.1521 37.4279 12.1521 37.4282C12.1521 37.4285 12.1521 37.4287 12.1521 37.429C12.1521 37.4293 12.1521 37.4295 12.1521 37.4298C12.1521 37.4301 12.1521 37.4303 12.1521 37.4306C12.1521 37.4309 12.1521 37.4311 12.1521 37.4314C12.1521 37.4317 12.1521 37.4319 12.1521 37.4322C12.1521 37.4325 12.1521 37.4327 12.1521 37.433C12.1521 37.4333 12.1521 37.4336 12.1521 37.4338C12.1521 37.4341 12.1521 37.4344 12.1521 37.4346C12.1521 37.4349 12.1521 37.4352 12.1521 37.4354C12.1521 37.4357 12.1521 37.436 12.1521 37.4362C12.1521 37.4365 12.1521 37.4368 12.1521 37.437C12.1521 37.4373 12.1521 37.4376 12.1521 37.4378C12.1521 37.4381 12.1521 37.4384 12.1521 37.4386C12.1521 37.4389 12.1521 37.4392 12.1521 37.4394C12.1521 37.4397 12.1521 37.44 12.1521 37.4402C12.1521 37.4405 12.1521 37.4408 12.1521 37.441C12.1521 37.4413 12.1521 37.4415 12.1521 37.4418C12.1521 37.4421 12.1521 37.4423 12.1521 37.4426C12.1521 37.4429 12.1521 37.4431 12.1521 37.4434C12.1521 37.4437 12.1521 37.4439 12.1521 37.4442C12.1521 37.4445 12.1521 37.4447 12.1521 37.445C12.1521 37.4453 12.1521 37.4455 12.1521 37.4458C12.1521 37.4461 12.1521 37.4463 12.1521 37.4466C12.1521 37.4468 12.1521 37.4471 12.1521 37.4474C12.1521 37.4476 12.1521 37.4479 12.1521 37.4482C12.1521 37.4484 12.1521 37.4487 12.1521 37.449C12.1521 37.4492 12.1521 37.4495 12.1521 37.4497C12.1521 37.45 12.1521 37.4503 12.1521 37.4505C12.1521 37.4508 12.1521 37.4511 12.1521 37.4513C12.1521 37.4516 12.1521 37.4518 12.1521 37.4521C12.1521 37.4524 12.1521 37.4526 12.1521 37.4529C12.1521 37.4532 12.1521 37.4534 12.1521 37.4537C12.1521 37.4539 12.1521 37.4542 12.1521 37.4545C12.1521 37.4547 12.1521 37.455 12.1521 37.4553C12.1521 37.4555 12.1521 37.4558 12.1521 37.456C12.1521 37.4563 12.1521 37.4566 12.1521 37.4568C12.1521 37.4571 12.1521 37.4573 12.1521 37.4576C12.1521 37.4579 12.1521 37.4581 12.1521 37.4584C12.1521 37.4586 12.1521 37.4589 12.1521 37.4592C12.1521 37.4594 12.1521 37.4597 12.1521 37.46C12.1521 37.4602 12.1521 37.4605 12.1521 37.4607C12.1521 37.461 12.1521 37.4613 12.1521 37.4615C12.1521 37.4618 12.1521 37.462 12.1521 37.4623C12.1521 37.4626 12.1521 37.4628 12.1521 37.4631C12.1521 37.4633 12.1521 37.4636 12.1521 37.4638C12.1521 37.4641 12.1521 37.4644 12.1521 37.4646C12.1521 37.4649 12.1521 37.4651 12.1521 37.4654C12.1521 37.4657 12.1521 37.4659 12.1521 37.4662C12.1521 37.4664 12.1521 37.4667 12.1521 37.467C12.1521 37.4672 12.1521 37.4675 12.1521 37.4677C12.1521 37.468 12.1521 37.4682 12.1521 37.4685C12.1521 37.4688 12.1521 37.469 12.1521 37.4693C12.1521 37.4695 12.1521 37.4698 12.1521 37.47C12.1521 37.4703 12.1521 37.4706 12.1521 37.4708C12.1521 37.4711 12.1521 37.4713 12.1521 37.4716C12.1521 37.4718 12.1521 37.4721 12.1521 37.4724C12.1521 37.4726 12.1521 37.4729 12.1521 37.4731C12.1521 37.4734 12.1521 37.4736 12.1521 37.4739C12.1521 37.4742 12.1521 37.4744 12.1521 37.4747C12.1521 37.4749 12.1521 37.4752 12.1521 37.4754C12.1521 37.4757 12.1521 37.4759 12.1521 37.4762C12.1521 37.4765 12.1521 37.4767 12.1521 37.477C12.1521 37.4772 12.1521 37.4775 12.1521 37.4777C12.1521 37.478 12.1521 37.4782 12.1521 37.4785C12.1521 37.4788 12.1521 37.479 12.1521 37.4793C12.1521 37.4795 12.1521 37.4798 12.1521 37.48C12.1521 37.4803 12.1521 37.4805 12.1521 37.4808C12.1521 37.481 12.1521 37.4813 12.1521 37.4816C12.1521 37.4818 12.1521 37.4821 12.1521 37.4823C12.1521 37.4826 12.1521 37.4828 12.1521 37.4831C12.1521 37.4833 12.1521 37.4836 12.1521 37.4838C12.1521 37.4841 12.1521 37.4843 12.1521 37.4846C12.1521 37.4848 12.1521 37.4851 12.1521 37.4854C12.1521 37.4856 12.1521 37.4859 12.1521 37.4861C12.1521 37.4864 12.1521 37.4866 12.1521 37.4869C12.1521 37.4871 12.1521 37.4874 12.1521 37.4876C12.1521 37.4879 12.1521 37.4881 12.1521 37.4884C12.1521 37.4886 12.1521 37.4889 12.1521 37.4891C12.1521 37.4894 12.1521 37.4896 12.1521 37.4899C12.1521 37.4901 12.1521 37.4904 12.1521 37.4906C12.1521 37.4909 12.1521 37.4911 12.1521 37.4914C12.1521 37.4917 12.1521 37.4919 12.1521 37.4922C12.1521 37.4924 12.1521 37.4927 12.1521 37.4929C12.1521 37.4932 12.1521 37.4934 12.1521 37.4937C12.1521 37.4939 12.1521 37.4942 12.1521 37.4944C12.1521 37.4947 12.1521 37.4949 12.1521 37.4952C12.1521 37.4954 12.1521 37.4957 12.1521 37.4959C12.1521 37.4962 12.1521 37.4964 12.1521 37.4967C12.1521 37.4969 12.1521 37.4972 12.1521 37.4974C12.1521 37.4977 12.1521 37.4979 12.1521 37.4982C12.1521 37.4984 12.1521 37.4987 12.1521 37.4989C12.1521 37.4991 12.1521 37.4994 12.1521 37.4996C12.1521 37.4999 12.1521 37.5001 12.1521 37.5004C12.1521 37.5006 12.1521 37.5009 12.1521 37.5011C12.1521 37.5014 12.1521 37.5016 12.1521 37.5019C12.1521 37.5021 12.1521 37.5024 12.1521 37.5026C12.1521 37.5029 12.1521 37.5031 12.1521 37.5034C12.1521 37.5036 12.1521 37.5039 12.1521 37.5041C12.1521 37.5044 12.1521 37.5046 12.1521 37.5049C12.1521 37.5051 12.1521 37.5053 12.1521 37.5056C12.1521 37.5058 12.1521 37.5061 12.1521 37.5063C12.1521 37.5066 12.1521 37.5068 12.1521 37.5071C12.1521 37.5073 12.1521 37.5076 12.1521 37.5078C12.1521 37.5081 12.1521 37.5083 12.1521 37.5085C12.1521 37.5088 12.1521 37.509 12.1521 37.5093C12.1521 37.5095 12.1521 37.5098 12.1521 37.51C12.1521 37.5103 12.1521 37.5105 12.1521 37.5108C12.1521 37.511 12.1521 37.5112 12.1521 37.5115C12.1521 37.5117 12.1521 37.512 12.1521 37.5122C12.1521 37.5125 12.1521 37.5127 12.1521 37.513C12.1521 37.5132 12.1521 37.5135 12.1521 37.5137C12.1521 37.5139 12.1521 37.5142 12.1521 37.5144C12.1521 37.5147 12.1521 37.5149 12.1521 37.5152C12.1521 37.5154 12.1521 37.5156 12.1521 37.5159C12.1521 37.5161 12.1521 37.5164 12.1521 37.5166C12.1521 37.5169 12.1521 37.5171 12.1521 37.5174C12.1521 37.5176 12.1521 37.5178 12.1521 37.5181C12.1521 37.5183 12.1521 37.5186 12.1521 37.5188C12.1521 37.5191 12.1521 37.5193 12.1521 37.5195C12.1521 37.5198 12.1521 37.52 12.1521 37.5203C12.1521 37.5205 12.1521 37.5208 12.1521 37.521C12.1521 37.5212 12.1521 37.5215 12.1521 37.5217C12.1521 37.522 12.1521 37.5222 12.1521 37.5224C12.1521 37.5227 12.1521 37.5229 12.1521 37.5232C12.1521 37.5234 12.1521 37.5237 12.1521 37.5239C12.1521 37.5241 12.1521 37.5244 12.1521 37.5246C12.1521 37.5249 12.1521 37.5251 12.1521 37.5253C12.1521 37.5256 12.1521 37.5258 12.1521 37.5261C12.1521 37.5263 12.1521 37.5265 12.1521 37.5268C12.1521 37.527 12.1521 37.5273 12.1521 37.5275C12.1521 37.5277 12.1521 37.528 12.1521 37.5282C12.1521 37.5285 12.1521 37.5287 12.1521 37.5289C12.1521 37.5292 12.1521 37.5294 12.1521 37.5297C12.1521 37.5299 12.1521 37.5301 12.1521 37.5304C12.1521 37.5306 12.1521 37.5309 12.1521 37.5311C12.1521 37.5313 12.1521 37.5316 12.1521 37.5318C12.1521 37.5321 12.1521 37.5323 12.1521 37.5325C12.1521 37.5328 12.1521 37.533 12.1521 37.5332C12.1521 37.5335 12.1521 37.5337 12.1521 37.534C12.1521 37.5342 12.1521 37.5344 12.1521 37.5347C12.1521 37.5349 12.1521 37.5352 12.1521 37.5354C12.1521 37.5356 12.1521 37.5359 12.1521 37.5361C12.1521 37.5363 12.1521 37.5366 12.1521 37.5368C12.1521 37.5371 12.1521 37.5373 12.1521 37.5375C12.1521 37.5378 12.1521 37.538 12.1521 37.5382C12.1521 37.5385 12.1521 37.5387 12.1521 37.5389C12.1521 37.5392 12.1521 37.5394 12.1521 37.5397C12.1521 37.5399 12.1521 37.5401 12.1521 37.5404C12.1521 37.5406 12.1521 37.5408 12.1521 37.5411C12.1521 37.5413 12.1521 37.5415 12.1521 37.5418C12.1521 37.542 12.1521 37.5423 12.1521 37.5425C12.1521 37.5427 12.1521 37.543 12.1521 37.5432C12.1521 37.5434 12.1521 37.5437 12.1521 37.5439C12.1521 37.5441 12.1521 37.5444 12.1521 37.5446C12.1521 37.5448 12.1521 37.5451 12.1521 37.5453C12.1521 37.5455 12.1521 37.5458 12.1521 37.546C12.1521 37.5462 12.1521 37.5465 12.1521 37.5467C12.1521 37.5469 12.1521 37.5472 12.1521 37.5474C12.1521 37.5476 12.1521 37.5479 12.1521 37.5481C12.1521 37.5483 12.1521 37.5486 12.1521 37.5488C12.1521 37.549 12.1521 37.5493 12.1521 37.5495C12.1521 37.5497 12.1521 37.55 12.1521 37.5502C12.1521 37.5504 12.1521 37.5507 12.1521 37.5509C12.1521 37.5511 12.1521 37.5514 12.1521 37.5516C12.1521 37.5518 12.1521 37.5521 12.1521 37.5523C12.1521 37.5525 12.1521 37.5528 12.1521 37.553C12.1521 37.5532 12.1521 37.5535 12.1521 37.5537C12.1521 37.5539 12.1521 37.5542 12.1521 37.5544C12.1521 37.5546 12.1521 37.5549 12.1521 37.5551C12.1521 37.5553 12.1521 37.5556 12.1521 37.5558C12.1521 37.556 12.1521 37.5562 12.1521 37.5565C12.1521 37.5567 12.1521 37.5569 12.1521 37.5572C12.1521 37.5574 12.1521 37.5576 12.1521 37.5579C12.1521 37.5581 12.1521 37.5583 12.1521 37.5586C12.1521 37.5588 12.1521 37.559 12.1521 37.5592C12.1521 37.5595 12.1521 37.5597 12.1521 37.5599C12.1521 37.5602 12.1521 37.5604 12.1521 37.5606C12.1521 37.5609 12.1521 37.5611 12.1521 37.5613C12.1521 37.5615 12.1521 37.5618 12.1521 37.562H14.1521C14.1521 37.5618 14.1521 37.5615 14.1521 37.5613C14.1521 37.5611 14.1521 37.5609 14.1521 37.5606C14.1521 37.5604 14.1521 37.5602 14.1521 37.5599C14.1521 37.5597 14.1521 37.5595 14.1521 37.5592C14.1521 37.559 14.1521 37.5588 14.1521 37.5586C14.1521 37.5583 14.1521 37.5581 14.1521 37.5579C14.1521 37.5576 14.1521 37.5574 14.1521 37.5572C14.1521 37.5569 14.1521 37.5567 14.1521 37.5565C14.1521 37.5562 14.1521 37.556 14.1521 37.5558C14.1521 37.5556 14.1521 37.5553 14.1521 37.5551C14.1521 37.5549 14.1521 37.5546 14.1521 37.5544C14.1521 37.5542 14.1521 37.5539 14.1521 37.5537C14.1521 37.5535 14.1521 37.5532 14.1521 37.553C14.1521 37.5528 14.1521 37.5525 14.1521 37.5523C14.1521 37.5521 14.1521 37.5518 14.1521 37.5516C14.1521 37.5514 14.1521 37.5511 14.1521 37.5509C14.1521 37.5507 14.1521 37.5504 14.1521 37.5502C14.1521 37.55 14.1521 37.5497 14.1521 37.5495C14.1521 37.5493 14.1521 37.549 14.1521 37.5488C14.1521 37.5486 14.1521 37.5483 14.1521 37.5481C14.1521 37.5479 14.1521 37.5476 14.1521 37.5474C14.1521 37.5472 14.1521 37.5469 14.1521 37.5467C14.1521 37.5465 14.1521 37.5462 14.1521 37.546C14.1521 37.5458 14.1521 37.5455 14.1521 37.5453C14.1521 37.5451 14.1521 37.5448 14.1521 37.5446C14.1521 37.5444 14.1521 37.5441 14.1521 37.5439C14.1521 37.5437 14.1521 37.5434 14.1521 37.5432C14.1521 37.543 14.1521 37.5427 14.1521 37.5425C14.1521 37.5423 14.1521 37.542 14.1521 37.5418C14.1521 37.5415 14.1521 37.5413 14.1521 37.5411C14.1521 37.5408 14.1521 37.5406 14.1521 37.5404C14.1521 37.5401 14.1521 37.5399 14.1521 37.5397C14.1521 37.5394 14.1521 37.5392 14.1521 37.5389C14.1521 37.5387 14.1521 37.5385 14.1521 37.5382C14.1521 37.538 14.1521 37.5378 14.1521 37.5375C14.1521 37.5373 14.1521 37.5371 14.1521 37.5368C14.1521 37.5366 14.1521 37.5363 14.1521 37.5361C14.1521 37.5359 14.1521 37.5356 14.1521 37.5354C14.1521 37.5352 14.1521 37.5349 14.1521 37.5347C14.1521 37.5344 14.1521 37.5342 14.1521 37.534C14.1521 37.5337 14.1521 37.5335 14.1521 37.5332C14.1521 37.533 14.1521 37.5328 14.1521 37.5325C14.1521 37.5323 14.1521 37.5321 14.1521 37.5318C14.1521 37.5316 14.1521 37.5313 14.1521 37.5311C14.1521 37.5309 14.1521 37.5306 14.1521 37.5304C14.1521 37.5301 14.1521 37.5299 14.1521 37.5297C14.1521 37.5294 14.1521 37.5292 14.1521 37.5289C14.1521 37.5287 14.1521 37.5285 14.1521 37.5282C14.1521 37.528 14.1521 37.5277 14.1521 37.5275C14.1521 37.5273 14.1521 37.527 14.1521 37.5268C14.1521 37.5265 14.1521 37.5263 14.1521 37.5261C14.1521 37.5258 14.1521 37.5256 14.1521 37.5253C14.1521 37.5251 14.1521 37.5249 14.1521 37.5246C14.1521 37.5244 14.1521 37.5241 14.1521 37.5239C14.1521 37.5237 14.1521 37.5234 14.1521 37.5232C14.1521 37.5229 14.1521 37.5227 14.1521 37.5224C14.1521 37.5222 14.1521 37.522 14.1521 37.5217C14.1521 37.5215 14.1521 37.5212 14.1521 37.521C14.1521 37.5208 14.1521 37.5205 14.1521 37.5203C14.1521 37.52 14.1521 37.5198 14.1521 37.5195C14.1521 37.5193 14.1521 37.5191 14.1521 37.5188C14.1521 37.5186 14.1521 37.5183 14.1521 37.5181C14.1521 37.5178 14.1521 37.5176 14.1521 37.5174C14.1521 37.5171 14.1521 37.5169 14.1521 37.5166C14.1521 37.5164 14.1521 37.5161 14.1521 37.5159C14.1521 37.5156 14.1521 37.5154 14.1521 37.5152C14.1521 37.5149 14.1521 37.5147 14.1521 37.5144C14.1521 37.5142 14.1521 37.5139 14.1521 37.5137C14.1521 37.5135 14.1521 37.5132 14.1521 37.513C14.1521 37.5127 14.1521 37.5125 14.1521 37.5122C14.1521 37.512 14.1521 37.5117 14.1521 37.5115C14.1521 37.5112 14.1521 37.511 14.1521 37.5108C14.1521 37.5105 14.1521 37.5103 14.1521 37.51C14.1521 37.5098 14.1521 37.5095 14.1521 37.5093C14.1521 37.509 14.1521 37.5088 14.1521 37.5085C14.1521 37.5083 14.1521 37.5081 14.1521 37.5078C14.1521 37.5076 14.1521 37.5073 14.1521 37.5071C14.1521 37.5068 14.1521 37.5066 14.1521 37.5063C14.1521 37.5061 14.1521 37.5058 14.1521 37.5056C14.1521 37.5053 14.1521 37.5051 14.1521 37.5049C14.1521 37.5046 14.1521 37.5044 14.1521 37.5041C14.1521 37.5039 14.1521 37.5036 14.1521 37.5034C14.1521 37.5031 14.1521 37.5029 14.1521 37.5026C14.1521 37.5024 14.1521 37.5021 14.1521 37.5019C14.1521 37.5016 14.1521 37.5014 14.1521 37.5011C14.1521 37.5009 14.1521 37.5006 14.1521 37.5004C14.1521 37.5001 14.1521 37.4999 14.1521 37.4996C14.1521 37.4994 14.1521 37.4991 14.1521 37.4989C14.1521 37.4987 14.1521 37.4984 14.1521 37.4982C14.1521 37.4979 14.1521 37.4977 14.1521 37.4974C14.1521 37.4972 14.1521 37.4969 14.1521 37.4967C14.1521 37.4964 14.1521 37.4962 14.1521 37.4959C14.1521 37.4957 14.1521 37.4954 14.1521 37.4952C14.1521 37.4949 14.1521 37.4947 14.1521 37.4944C14.1521 37.4942 14.1521 37.4939 14.1521 37.4937C14.1521 37.4934 14.1521 37.4932 14.1521 37.4929C14.1521 37.4927 14.1521 37.4924 14.1521 37.4922C14.1521 37.4919 14.1521 37.4917 14.1521 37.4914C14.1521 37.4911 14.1521 37.4909 14.1521 37.4906C14.1521 37.4904 14.1521 37.4901 14.1521 37.4899C14.1521 37.4896 14.1521 37.4894 14.1521 37.4891C14.1521 37.4889 14.1521 37.4886 14.1521 37.4884C14.1521 37.4881 14.1521 37.4879 14.1521 37.4876C14.1521 37.4874 14.1521 37.4871 14.1521 37.4869C14.1521 37.4866 14.1521 37.4864 14.1521 37.4861C14.1521 37.4859 14.1521 37.4856 14.1521 37.4854C14.1521 37.4851 14.1521 37.4848 14.1521 37.4846C14.1521 37.4843 14.1521 37.4841 14.1521 37.4838C14.1521 37.4836 14.1521 37.4833 14.1521 37.4831C14.1521 37.4828 14.1521 37.4826 14.1521 37.4823C14.1521 37.4821 14.1521 37.4818 14.1521 37.4816C14.1521 37.4813 14.1521 37.481 14.1521 37.4808C14.1521 37.4805 14.1521 37.4803 14.1521 37.48C14.1521 37.4798 14.1521 37.4795 14.1521 37.4793C14.1521 37.479 14.1521 37.4788 14.1521 37.4785C14.1521 37.4782 14.1521 37.478 14.1521 37.4777C14.1521 37.4775 14.1521 37.4772 14.1521 37.477C14.1521 37.4767 14.1521 37.4765 14.1521 37.4762C14.1521 37.4759 14.1521 37.4757 14.1521 37.4754C14.1521 37.4752 14.1521 37.4749 14.1521 37.4747C14.1521 37.4744 14.1521 37.4742 14.1521 37.4739C14.1521 37.4736 14.1521 37.4734 14.1521 37.4731C14.1521 37.4729 14.1521 37.4726 14.1521 37.4724C14.1521 37.4721 14.1521 37.4718 14.1521 37.4716C14.1521 37.4713 14.1521 37.4711 14.1521 37.4708C14.1521 37.4706 14.1521 37.4703 14.1521 37.47C14.1521 37.4698 14.1521 37.4695 14.1521 37.4693C14.1521 37.469 14.1521 37.4688 14.1521 37.4685C14.1521 37.4682 14.1521 37.468 14.1521 37.4677C14.1521 37.4675 14.1521 37.4672 14.1521 37.467C14.1521 37.4667 14.1521 37.4664 14.1521 37.4662C14.1521 37.4659 14.1521 37.4657 14.1521 37.4654C14.1521 37.4651 14.1521 37.4649 14.1521 37.4646C14.1521 37.4644 14.1521 37.4641 14.1521 37.4638C14.1521 37.4636 14.1521 37.4633 14.1521 37.4631C14.1521 37.4628 14.1521 37.4626 14.1521 37.4623C14.1521 37.462 14.1521 37.4618 14.1521 37.4615C14.1521 37.4613 14.1521 37.461 14.1521 37.4607C14.1521 37.4605 14.1521 37.4602 14.1521 37.46C14.1521 37.4597 14.1521 37.4594 14.1521 37.4592C14.1521 37.4589 14.1521 37.4586 14.1521 37.4584C14.1521 37.4581 14.1521 37.4579 14.1521 37.4576C14.1521 37.4573 14.1521 37.4571 14.1521 37.4568C14.1521 37.4566 14.1521 37.4563 14.1521 37.456C14.1521 37.4558 14.1521 37.4555 14.1521 37.4553C14.1521 37.455 14.1521 37.4547 14.1521 37.4545C14.1521 37.4542 14.1521 37.4539 14.1521 37.4537C14.1521 37.4534 14.1521 37.4532 14.1521 37.4529C14.1521 37.4526 14.1521 37.4524 14.1521 37.4521C14.1521 37.4518 14.1521 37.4516 14.1521 37.4513C14.1521 37.4511 14.1521 37.4508 14.1521 37.4505C14.1521 37.4503 14.1521 37.45 14.1521 37.4497C14.1521 37.4495 14.1521 37.4492 14.1521 37.449C14.1521 37.4487 14.1521 37.4484 14.1521 37.4482C14.1521 37.4479 14.1521 37.4476 14.1521 37.4474C14.1521 37.4471 14.1521 37.4468 14.1521 37.4466C14.1521 37.4463 14.1521 37.4461 14.1521 37.4458C14.1521 37.4455 14.1521 37.4453 14.1521 37.445C14.1521 37.4447 14.1521 37.4445 14.1521 37.4442C14.1521 37.4439 14.1521 37.4437 14.1521 37.4434C14.1521 37.4431 14.1521 37.4429 14.1521 37.4426C14.1521 37.4423 14.1521 37.4421 14.1521 37.4418C14.1521 37.4415 14.1521 37.4413 14.1521 37.441C14.1521 37.4408 14.1521 37.4405 14.1521 37.4402C14.1521 37.44 14.1521 37.4397 14.1521 37.4394C14.1521 37.4392 14.1521 37.4389 14.1521 37.4386C14.1521 37.4384 14.1521 37.4381 14.1521 37.4378C14.1521 37.4376 14.1521 37.4373 14.1521 37.437C14.1521 37.4368 14.1521 37.4365 14.1521 37.4362C14.1521 37.436 14.1521 37.4357 14.1521 37.4354C14.1521 37.4352 14.1521 37.4349 14.1521 37.4346C14.1521 37.4344 14.1521 37.4341 14.1521 37.4338C14.1521 37.4336 14.1521 37.4333 14.1521 37.433C14.1521 37.4327 14.1521 37.4325 14.1521 37.4322C14.1521 37.4319 14.1521 37.4317 14.1521 37.4314C14.1521 37.4311 14.1521 37.4309 14.1521 37.4306C14.1521 37.4303 14.1521 37.4301 14.1521 37.4298C14.1521 37.4295 14.1521 37.4293 14.1521 37.429C14.1521 37.4287 14.1521 37.4285 14.1521 37.4282C14.1521 37.4279 14.1521 37.4276 14.1521 37.4274C14.1521 37.4271 14.1521 37.4268 14.1521 37.4266C14.1521 37.4263 14.1521 37.426 14.1521 37.4258C14.1521 37.4255 14.1521 37.4252 14.1521 37.4249C14.1521 37.4247 14.1521 37.4244 14.1521 37.4241C14.1521 37.4239 14.1521 37.4236 14.1521 37.4233C14.1521 37.4231 14.1521 37.4228 14.1521 37.4225C14.1521 37.4222 14.1521 37.422 14.1521 37.4217C14.1521 37.4214 14.1521 37.4212 14.1521 37.4209C14.1521 37.4206 14.1521 37.4203 14.1521 37.4201C14.1521 37.4198 14.1521 37.4195 14.1521 37.4193C14.1521 37.419 14.1521 37.4187 14.1521 37.4184C14.1521 37.4182 14.1521 37.4179 14.1521 37.4176C14.1521 37.4174 14.1521 37.4171 14.1521 37.4168C14.1521 37.4165 14.1521 37.4163 14.1521 37.416C14.1521 37.4157 14.1521 37.4154 14.1521 37.4152C14.1521 37.4149 14.1521 37.4146 14.1521 37.4144C14.1521 37.4141 14.1521 37.4138 14.1521 37.4135C14.1521 37.4133 14.1521 37.413 14.1521 37.4127C14.1521 37.4124 14.1521 37.4122 14.1521 37.4119C14.1521 37.4116 14.1521 37.4113 14.1521 37.4111C14.1521 37.4108 14.1521 37.4105 14.1521 37.4102C14.1521 37.41 14.1521 37.4097 14.1521 37.4094C14.1521 37.4092 14.1521 37.4089 14.1521 37.4086C14.1521 37.4083 14.1521 37.4081 14.1521 37.4078C14.1521 37.4075 14.1521 37.4072 14.1521 37.407C14.1521 37.4067 14.1521 37.4064 14.1521 37.4061C14.1521 37.4059 14.1521 37.4056 14.1521 37.4053C14.1521 37.405 14.1521 37.4048 14.1521 37.4045C14.1521 37.4042 14.1521 37.4039 14.1521 37.4036C14.1521 37.4034 14.1521 37.4031 14.1521 37.4028C14.1521 37.4025 14.1521 37.4023 14.1521 37.402C14.1521 37.4017 14.1521 37.4014 14.1521 37.4012C14.1521 37.4009 14.1521 37.4006 14.1521 37.4003C14.1521 37.4001 14.1521 37.3998 14.1521 37.3995C14.1521 37.3992 14.1521 37.3989 14.1521 37.3987C14.1521 37.3984 14.1521 37.3981 14.1521 37.3978C14.1521 37.3976 14.1521 37.3973 14.1521 37.397C14.1521 37.3967 14.1521 37.3965 14.1521 37.3962C14.1521 37.3959 14.1521 37.3956 14.1521 37.3953C14.1521 37.3951 14.1521 37.3948 14.1521 37.3945C14.1521 37.3942 14.1521 37.3939 14.1521 37.3937C14.1521 37.3934 14.1521 37.3931 14.1521 37.3928C14.1521 37.3926 14.1521 37.3923 14.1521 37.392C14.1521 37.3917 14.1521 37.3914 14.1521 37.3912C14.1521 37.3909 14.1521 37.3906 14.1521 37.3903C14.1521 37.39 14.1521 37.3898 14.1521 37.3895C14.1521 37.3892 14.1521 37.3889 14.1521 37.3886C14.1521 37.3884 14.1521 37.3881 14.1521 37.3878C14.1521 37.3875 14.1521 37.3872 14.1521 37.387C14.1521 37.3867 14.1521 37.3864 14.1521 37.3861C14.1521 37.3858 14.1521 37.3856 14.1521 37.3853C14.1521 37.385 14.1521 37.3847 14.1521 37.3844C14.1521 37.3842 14.1521 37.3839 14.1521 37.3836C14.1521 37.3833 14.1521 37.383 14.1521 37.3827C14.1521 37.3825 14.1521 37.3822 14.1521 37.3819C14.1521 37.3816 14.1521 37.3813 14.1521 37.3811C14.1521 37.3808 14.1521 37.3805 14.1521 37.3802C14.1521 37.3799 14.1521 37.3796 14.1521 37.3794C14.1521 37.3791 14.1521 37.3788 14.1521 37.3785C14.1521 37.3782 14.1521 37.3779 14.1521 37.3777C14.1521 37.3774 14.1521 37.3771 14.1521 37.3768C14.1521 37.3765 14.1521 37.3762 14.1521 37.376C14.1521 37.3757 14.1521 37.3754 14.1521 37.3751C14.1521 37.3748 14.1521 37.3745 14.1521 37.3743C14.1521 37.374 14.1521 37.3737 14.1521 37.3734C14.1521 37.3731 14.1521 37.3728 14.1521 37.3726C14.1521 37.3723 14.1521 37.372 14.1521 37.3717C14.1521 37.3714 14.1521 37.3711 14.1521 37.3709C14.1521 37.3706 14.1521 37.3703 14.1521 37.37C14.1521 37.3697 14.1521 37.3694 14.1521 37.3691C14.1521 37.3689 14.1521 37.3686 14.1521 37.3683C14.1521 37.368 14.1521 37.3677 14.1521 37.3674C14.1521 37.3671 14.1521 37.3669 14.1521 37.3666C14.1521 37.3663 14.1521 37.366 14.1521 37.3657C14.1521 37.3654 14.1521 37.3651 14.1521 37.3649C14.1521 37.3646 14.1521 37.3643 14.1521 37.364C14.1521 37.3637 14.1521 37.3634 14.1521 37.3631C14.1521 37.3629 14.1521 37.3626 14.1521 37.3623C14.1521 37.362 14.1521 37.3617 14.1521 37.3614C14.1521 37.3611 14.1521 37.3608 14.1521 37.3606C14.1521 37.3603 14.1521 37.36 14.1521 37.3597C14.1521 37.3594 14.1521 37.3591 14.1521 37.3588C14.1521 37.3585 14.1521 37.3583 14.1521 37.358C14.1521 37.3577 14.1521 37.3574 14.1521 37.3571C14.1521 37.3568 14.1521 37.3565 14.1521 37.3562C14.1521 37.3559 14.1521 37.3557 14.1521 37.3554C14.1521 37.3551 14.1521 37.3548 14.1521 37.3545C14.1521 37.3542 14.1521 37.3539 14.1521 37.3536C14.1521 37.3533 14.1521 37.3531 14.1521 37.3528C14.1521 37.3525 14.1521 37.3522 14.1521 37.3519C14.1521 37.3516 14.1521 37.3513 14.1521 37.351C14.1521 37.3507 14.1521 37.3505 14.1521 37.3502C14.1521 37.3499 14.1521 37.3496 14.1521 37.3493C14.1521 37.349 14.1521 37.3487 14.1521 37.3484C14.1521 37.3481 14.1521 37.3478 14.1521 37.3476C14.1521 37.3473 14.1521 37.347 14.1521 37.3467C14.1521 37.3464 14.1521 37.3461 14.1521 37.3458C14.1521 37.3455 14.1521 37.3452 14.1521 37.3449C14.1521 37.3446 14.1521 37.3443 14.1521 37.3441C14.1521 37.3438 14.1521 37.3435 14.1521 37.3432C14.1521 37.3429 14.1521 37.3426 14.1521 37.3423C14.1521 37.342 14.1521 37.3417 14.1521 37.3414C14.1521 37.3411 14.1521 37.3408 14.1521 37.3406C14.1521 37.3403 14.1521 37.34 14.1521 37.3397C14.1521 37.3394 14.1521 37.3391 14.1521 37.3388C14.1521 37.3385 14.1521 37.3382 14.1521 37.3379C14.1521 37.3376 14.1521 37.3373 14.1521 37.337C14.1521 37.3367 14.1521 37.3365 14.1521 37.3362C14.1521 37.3359 14.1521 37.3356 14.1521 37.3353C14.1521 37.335 14.1521 37.3347 14.1521 37.3344C14.1521 37.3341 14.1521 37.3338 14.1521 37.3335C14.1521 37.3332 14.1521 37.3329 14.1521 37.3326C14.1521 37.3323 14.1521 37.332 14.1521 37.3317C14.1521 37.3314 14.1521 37.3312 14.1521 37.3309C14.1521 37.3306 14.1521 37.3303 14.1521 37.33C14.1521 37.3297 14.1521 37.3294 14.1521 37.3291C14.1521 37.3288 14.1521 37.3285 14.1521 37.3282C14.1521 37.3279 14.1521 37.3276 14.1521 37.3273C14.1521 37.327 14.1521 37.3267 14.1521 37.3264C14.1521 37.3261 14.1521 37.3258 14.1521 37.3255C14.1521 37.3252 14.1521 37.3249 14.1521 37.3246C14.1521 37.3244 14.1521 37.3241 14.1521 37.3238C14.1521 37.3235 14.1521 37.3232 14.1521 37.3229C14.1521 37.3226 14.1521 37.3223 14.1521 37.322C14.1521 37.3217 14.1521 37.3214 14.1521 37.3211C14.1521 37.3208 14.1521 37.3205 14.1521 37.3202C14.1521 37.3199 14.1521 37.3196 14.1521 37.3193C14.1521 37.319 14.1521 37.3187 14.1521 37.3184C14.1521 37.3181 14.1521 37.3178 14.1521 37.3175C14.1521 37.3172 14.1521 37.3169 14.1521 37.3166C14.1521 37.3163 14.1521 37.316 14.1521 37.3157C14.1521 37.3154 14.1521 37.3151 14.1521 37.3148C14.1521 37.3145 14.1521 37.3142 14.1521 37.3139C14.1521 37.3136 14.1521 37.3133 14.1521 37.313C14.1521 37.3127 14.1521 37.3124 14.1521 37.3121C14.1521 37.3118 14.1521 37.3115 14.1521 37.3112C14.1521 37.3109 14.1521 37.3106 14.1521 37.3103C14.1521 37.31 14.1521 37.3097 14.1521 37.3094C14.1521 37.3091 14.1521 37.3088 14.1521 37.3085C14.1521 37.3082 14.1521 37.3079 14.1521 37.3076C14.1521 37.3073 14.1521 37.307 14.1521 37.3067C14.1521 37.3064 14.1521 37.3061 14.1521 37.3058C14.1521 37.3055 14.1521 37.3052 14.1521 37.3049C14.1521 37.3046 14.1521 37.3043 14.1521 37.304C14.1521 37.3037 14.1521 37.3034 14.1521 37.3031C14.1521 37.3028 14.1521 37.3025 14.1521 37.3022C14.1521 37.3019 14.1521 37.3016 14.1521 37.3013C14.1521 37.301 14.1521 37.3007 14.1521 37.3004C14.1521 37.3001 14.1521 37.2998 14.1521 37.2995C14.1521 37.2992 14.1521 37.2989 14.1521 37.2986C14.1521 37.2983 14.1521 37.298 14.1521 37.2977C14.1521 37.2974 14.1521 37.2971 14.1521 37.2967C14.1521 37.2964 14.1521 37.2961 14.1521 37.2958C14.1521 37.2955 14.1521 37.2952 14.1521 37.2949C14.1521 37.2946 14.1521 37.2943 14.1521 37.294C14.1521 37.2937 14.1521 37.2934 14.1521 37.2931C14.1521 37.2928 14.1521 37.2925 14.1521 37.2922C14.1521 37.2919 14.1521 37.2916 14.1521 37.2913C14.1521 37.291 14.1521 37.2907 14.1521 37.2904C14.1521 37.2901 14.1521 37.2897 14.1521 37.2894C14.1521 37.2891 14.1521 37.2888 14.1521 37.2885C14.1521 37.2882 14.1521 37.2879 14.1521 37.2876C14.1521 37.2873 14.1521 37.287 14.1521 37.2867C14.1521 37.2864 14.1521 37.2861 14.1521 37.2858C14.1521 37.2855 14.1521 37.2852 14.1521 37.2849C14.1521 37.2845 14.1521 37.2842 14.1521 37.2839C14.1521 37.2836 14.1521 37.2833 14.1521 37.283C14.1521 37.2827 14.1521 37.2824 14.1521 37.2821C14.1521 37.2818 14.1521 37.2815 14.1521 37.2812C14.1521 37.2809 14.1521 37.2806 14.1521 37.2803C14.1521 37.2799 14.1521 37.2796 14.1521 37.2793C14.1521 37.279 14.1521 37.2787 14.1521 37.2784C14.1521 37.2781 14.1521 37.2778 14.1521 37.2775C14.1521 37.2772 14.1521 37.2769 14.1521 37.2766C14.1521 37.2762 14.1521 37.2759 14.1521 37.2756C14.1521 37.2753 14.1521 37.275 14.1521 37.2747C14.1521 37.2744 14.1521 37.2741 14.1521 37.2738C14.1521 37.2735 14.1521 37.2732 14.1521 37.2729C14.1521 37.2725 14.1521 37.2722 14.1521 37.2719C14.1521 37.2716 14.1521 37.2713 14.1521 37.271C14.1521 37.2707 14.1521 37.2704 14.1521 37.2701C14.1521 37.2698 14.1521 37.2694 14.1521 37.2691C14.1521 37.2688 14.1521 37.2685 14.1521 37.2682C14.1521 37.2679 14.1521 37.2676 14.1521 37.2673C14.1521 37.267 14.1521 37.2667 14.1521 37.2663C14.1521 37.266 14.1521 37.2657 14.1521 37.2654C14.1521 37.2651 14.1521 37.2648 14.1521 37.2645C14.1521 37.2642 14.1521 37.2639 14.1521 37.2635C14.1521 37.2632 14.1521 37.2629 14.1521 37.2626C14.1521 37.2623 14.1521 37.262 14.1521 37.2617C14.1521 37.2614 14.1521 37.261 14.1521 37.2607C14.1521 37.2604 14.1521 37.2601 14.1521 37.2598C14.1521 37.2595 14.1521 37.2592 14.1521 37.2589C14.1521 37.2585 14.1521 37.2582 14.1521 37.2579C14.1521 37.2576 14.1521 37.2573 14.1521 37.257C14.1521 37.2567 14.1521 37.2564 14.1521 37.256C14.1521 37.2557 14.1521 37.2554 14.1521 37.2551C14.1521 37.2548 14.1521 37.2545 14.1521 37.2542C14.1521 37.2538 14.1521 37.2535 14.1521 37.2532C14.1521 37.2529 14.1521 37.2526 14.1521 37.2523C14.1521 37.252 14.1521 37.2516 14.1521 37.2513C14.1521 37.251 14.1521 37.2507 14.1521 37.2504C14.1521 37.2501 14.1521 37.2498 14.1521 37.2494C14.1521 37.2491 14.1521 37.2488 14.1521 37.2485C14.1521 37.2482 14.1521 37.2479 14.1521 37.2476C14.1521 37.2472 14.1521 37.2469 14.1521 37.2466C14.1521 37.2463 14.1521 37.246 14.1521 37.2457C14.1521 37.2453 14.1521 37.245 14.1521 37.2447C14.1521 37.2444 14.1521 37.2441 14.1521 37.2438C14.1521 37.2434 14.1521 37.2431 14.1521 37.2428C14.1521 37.2425 14.1521 37.2422 14.1521 37.2419C14.1521 37.2416 14.1521 37.2412 14.1521 37.2409C14.1521 37.2406 14.1521 37.2403 14.1521 37.24C14.1521 37.2396 14.1521 37.2393 14.1521 37.239C14.1521 37.2387 14.1521 37.2384 14.1521 37.2381C14.1521 37.2377 14.1521 37.2374 14.1521 37.2371C14.1521 37.2368 14.1521 37.2365 14.1521 37.2362C14.1521 37.2358 14.1521 37.2355 14.1521 37.2352C14.1521 37.2349 14.1521 37.2346 14.1521 37.2342C14.1521 37.2339 14.1521 37.2336 14.1521 37.2333C14.1521 37.233 14.1521 37.2327 14.1521 37.2323C14.1521 37.232 14.1521 37.2317 14.1521 37.2314C14.1521 37.2311 14.1521 37.2307 14.1521 37.2304C14.1521 37.2301 14.1521 37.2298 14.1521 37.2295C14.1521 37.2291 14.1521 37.2288 14.1521 37.2285C14.1521 37.2282 14.1521 37.2279 14.1521 37.2275C14.1521 37.2272 14.1521 37.2269 14.1521 37.2266C14.1521 37.2263 14.1521 37.2259 14.1521 37.2256C14.1521 37.2253 14.1521 37.225 14.1521 37.2247C14.1521 37.2243 14.1521 37.224 14.1521 37.2237C14.1521 37.2234 14.1521 37.2231 14.1521 37.2227C14.1521 37.2224 14.1521 37.2221 14.1521 37.2218C14.1521 37.2214 14.1521 37.2211 14.1521 37.2208C14.1521 37.2205 14.1521 37.2202 14.1521 37.2198C14.1521 37.2195 14.1521 37.2192 14.1521 37.2189C14.1521 37.2186 14.1521 37.2182 14.1521 37.2179C14.1521 37.2176 14.1521 37.2173 14.1521 37.2169C14.1521 37.2166 14.1521 37.2163 14.1521 37.216C14.1521 37.2156 14.1521 37.2153 14.1521 37.215C14.1521 37.2147 14.1521 37.2144 14.1521 37.214C14.1521 37.2137 14.1521 37.2134 14.1521 37.2131C14.1521 37.2127 14.1521 37.2124 14.1521 37.2121C14.1521 37.2118 14.1521 37.2114 14.1521 37.2111C14.1521 37.2108 14.1521 37.2105 14.1521 37.2101C14.1521 37.2098 14.1521 37.2095 14.1521 37.2092C14.1521 37.2089 14.1521 37.2085 14.1521 37.2082C14.1521 37.2079 14.1521 37.2076 14.1521 37.2072C14.1521 37.2069 14.1521 37.2066 14.1521 37.2063C14.1521 37.2059 14.1521 37.2056 14.1521 37.2053C14.1521 37.205 14.1521 37.2046 14.1521 37.2043C14.1521 37.204 14.1521 37.2037 14.1521 37.2033C14.1521 37.203 14.1521 37.2027 14.1521 37.2024C14.1521 37.202 14.1521 37.2017 14.1521 37.2014C14.1521 37.201 14.1521 37.2007 14.1521 37.2004C14.1521 37.2001 14.1521 37.1997 14.1521 37.1994C14.1521 37.1991 14.1521 37.1988 14.1521 37.1984C14.1521 37.1981 14.1521 37.1978 14.1521 37.1975C14.1521 37.1971 14.1521 37.1968 14.1521 37.1965C14.1521 37.1961 14.1521 37.1958 14.1521 37.1955C14.1521 37.1952 14.1521 37.1948 14.1521 37.1945C14.1521 37.1942 14.1521 37.1939 14.1521 37.1935C14.1521 37.1932 14.1521 37.1929 14.1521 37.1925C14.1521 37.1922 14.1521 37.1919 14.1521 37.1916C14.1521 37.1912 14.1521 37.1909 14.1521 37.1906C14.1521 37.1902 14.1521 37.1899 14.1521 37.1896C14.1521 37.1893 14.1521 37.1889 14.1521 37.1886C14.1521 37.1883 14.1521 37.1879 14.1521 37.1876C14.1521 37.1873 14.1521 37.187 14.1521 37.1866C14.1521 37.1863 14.1521 37.186 14.1521 37.1856C14.1521 37.1853 14.1521 37.185 14.1521 37.1846C14.1521 37.1843 14.1521 37.184 14.1521 37.1837C14.1521 37.1833 14.1521 37.183 14.1521 37.1827C14.1521 37.1823 14.1521 37.182 14.1521 37.1817C14.1521 37.1813 14.1521 37.181 14.1521 37.1807C14.1521 37.1804 14.1521 37.18 14.1521 37.1797C14.1521 37.1794 14.1521 37.179 14.1521 37.1787C14.1521 37.1784 14.1521 37.178 14.1521 37.1777C14.1521 37.1774 14.1521 37.177 14.1521 37.1767C14.1521 37.1764 14.1521 37.176 14.1521 37.1757C14.1521 37.1754 14.1521 37.175 14.1521 37.1747C14.1521 37.1744 14.1521 37.1741 14.1521 37.1737C14.1521 37.1734 14.1521 37.1731 14.1521 37.1727C14.1521 37.1724 14.1521 37.1721 14.1521 37.1717C14.1521 37.1714 14.1521 37.1711 14.1521 37.1707C14.1521 37.1704 14.1521 37.1701 14.1521 37.1697C14.1521 37.1694 14.1521 37.1691 14.1521 37.1687C14.1521 37.1684 14.1521 37.1681 14.1521 37.1677C14.1521 37.1674 14.1521 37.1671 14.1521 37.1667C14.1521 37.1664 14.1521 37.1661 14.1521 37.1657C14.1521 37.1654 14.1521 37.1651 14.1521 37.1647C14.1521 37.1644 14.1521 37.1641 14.1521 37.1637C14.1521 37.1634 14.1521 37.163 14.1521 37.1627C14.1521 37.1624 14.1521 37.162 14.1521 37.1617C14.1521 37.1614 14.1521 37.161 14.1521 37.1607C14.1521 37.1604 14.1521 37.16 14.1521 37.1597C14.1521 37.1594 14.1521 37.159 14.1521 37.1587C14.1521 37.1584 14.1521 37.158 14.1521 37.1577C14.1521 37.1573 14.1521 37.157 14.1521 37.1567C14.1521 37.1563 14.1521 37.156 14.1521 37.1557C14.1521 37.1553 14.1521 37.155 14.1521 37.1547C14.1521 37.1543 14.1521 37.154 14.1521 37.1536C14.1521 37.1533 14.1521 37.153 14.1521 37.1526C14.1521 37.1523 14.1521 37.152 14.1521 37.1516C14.1521 37.1513 14.1521 37.1509 14.1521 37.1506C14.1521 37.1503 14.1521 37.1499 14.1521 37.1496C14.1521 37.1493 14.1521 37.1489 14.1521 37.1486C14.1521 37.1482 14.1521 37.1479 14.1521 37.1476C14.1521 37.1472 14.1521 37.1469 14.1521 37.1466C14.1521 37.1462 14.1521 37.1459 14.1521 37.1455C14.1521 37.1452 14.1521 37.1449 14.1521 37.1445C14.1521 37.1442 14.1521 37.1438 14.1521 37.1435C14.1521 37.1432 14.1521 37.1428 14.1521 37.1425C14.1521 37.1422 14.1521 37.1418 14.1521 37.1415C14.1521 37.1411 14.1521 37.1408 14.1521 37.1405C14.1521 37.1401 14.1521 37.1398 14.1521 37.1394C14.1521 37.1391 14.1521 37.1388 14.1521 37.1384C14.1521 37.1381 14.1521 37.1377 14.1521 37.1374C14.1521 37.1371 14.1521 37.1367 14.1521 37.1364C14.1521 37.136 14.1521 37.1357 14.1521 37.1353C14.1521 37.135 14.1521 37.1347 14.1521 37.1343C14.1521 37.134 14.1521 37.1336 14.1521 37.1333C14.1521 37.133 14.1521 37.1326 14.1521 37.1323C14.1521 37.1319 14.1521 37.1316 14.1521 37.1313C14.1521 37.1309 14.1521 37.1306 14.1521 37.1302C14.1521 37.1299 14.1521 37.1295 14.1521 37.1292C14.1521 37.1289 14.1521 37.1285 14.1521 37.1282C14.1521 37.1278 14.1521 37.1275 14.1521 37.1271C14.1521 37.1268 14.1521 37.1265 14.1521 37.1261C14.1521 37.1258 14.1521 37.1254 14.1521 37.1251C14.1521 37.1247 14.1521 37.1244 14.1521 37.1241C14.1521 37.1237 14.1521 37.1234 14.1521 37.123C14.1521 37.1227 14.1521 37.1223 14.1521 37.122H12.1521ZM12.1582 37.6724C12.1737 37.8121 12.1896 37.9401 12.2061 38.0554L14.186 37.7726C14.1732 37.6826 14.1598 37.5759 14.1459 37.4516L12.1582 37.6724ZM13.2981 36.9192C13.0763 36.8965 12.933 36.8578 12.8474 36.8229C12.7647 36.7892 12.7588 36.7688 12.7763 36.7898L11.2398 38.0702C11.7093 38.6336 12.4267 38.8403 13.094 38.9088L13.2981 36.9192ZM12.7763 36.7898C12.7783 36.7923 12.7527 36.763 12.7265 36.6653C12.6999 36.5658 12.6781 36.4147 12.6781 36.198H10.6781C10.6781 36.8536 10.8016 37.5443 11.2398 38.0702L12.7763 36.7898ZM12.6781 36.198C12.6781 35.8864 12.7147 35.4647 12.7984 34.9201L10.8217 34.6159C10.7295 35.2153 10.6781 35.7469 10.6781 36.198H12.6781ZM12.799 34.9163C12.8809 34.3702 13.0051 33.7746 13.1737 33.1284L11.2384 32.6236C11.055 33.3268 10.9152 33.9925 10.8211 34.6197L12.799 34.9163ZM13.1723 33.1337C13.2875 32.7018 13.447 32.1288 13.6516 31.4127L11.7285 30.8633C11.5225 31.5845 11.3593 32.1702 11.2398 32.6183L13.1723 33.1337ZM13.653 31.4076C13.8562 30.6821 14.0815 29.9117 14.3289 29.0965L12.4152 28.5155C12.164 29.3429 11.9346 30.1273 11.7271 30.8684L13.653 31.4076ZM13.3721 27.806C12.4728 27.806 11.716 27.8134 11.1037 27.8283L11.1524 29.8277C11.7428 29.8133 12.482 29.806 13.3721 29.806V27.806ZM11.1037 27.8283C10.5004 27.843 9.97657 27.8578 9.53275 27.8726L9.59938 29.8714C10.0356 29.8569 10.5531 29.8423 11.1524 29.8277L11.1037 27.8283ZM9.53275 27.8726C9.07054 27.888 8.60847 27.9188 8.14656 27.965L8.34557 29.955C8.76366 29.9132 9.18158 29.8854 9.59938 29.8714L9.53275 27.8726ZM7.291 28.6636C7.02748 29.5127 6.76397 30.3545 6.50048 31.1889L8.40765 31.7911C8.67215 30.9535 8.93664 30.1086 9.20113 29.2564L7.291 28.6636ZM6.50048 31.1889C6.23623 32.0256 5.99393 32.7966 5.77358 33.5017L7.68254 34.0983C7.9022 33.3954 8.14389 32.6264 8.40765 31.7911L6.50048 31.1889ZM5.7754 33.496C5.55449 34.1882 5.36958 34.7798 5.22104 35.27L7.13509 35.85C7.27987 35.3722 7.46164 34.7905 7.68072 34.104L5.7754 33.496ZM5.22104 35.27C5.07447 35.7537 4.97871 36.0704 4.93424 36.2187L6.84989 36.7933C6.89341 36.6483 6.98832 36.3343 7.13509 35.85L5.22104 35.27ZM4.9327 36.2238C4.82955 36.5746 4.70143 36.7055 4.62473 36.7578L5.7514 38.4102C6.32003 38.0225 6.66125 37.4348 6.85143 36.7882L4.9327 36.2238ZM4.60682 36.7703C4.49914 36.8472 4.42325 36.8864 4.37786 36.9048C4.33301 36.9229 4.33504 36.914 4.37406 36.914V38.914C4.90982 38.914 5.38711 38.6707 5.7693 38.3977L4.60682 36.7703ZM18.7509 37.716L19.0569 36.764L19.0413 36.759L19.0256 36.7545L18.7509 37.716ZM17.6949 36.924L16.7159 36.72L16.6266 37.1488L16.8812 37.5052L17.6949 36.924ZM18.2229 34.658L17.2569 34.3992L17.2538 34.4113L18.2229 34.658ZM18.9269 32.15L19.8865 32.4313L19.8878 32.4269L18.9269 32.15ZM19.6749 29.62L18.7212 29.3188L18.718 29.3295L19.6749 29.62ZM20.4229 27.288L19.4723 26.9776L20.4229 27.288ZM21.0609 25.396L20.1174 25.0645L21.0609 25.396ZM21.5009 24.164L20.5645 23.8129L20.5625 23.8183L21.5009 24.164ZM21.7209 23.658L22.6271 24.0809L22.6322 24.0699L22.637 24.0588L21.7209 23.658ZM22.0949 22.954L21.2469 22.424V22.424L22.0949 22.954ZM22.6009 22.36L23.2468 23.1234L23.2633 23.1094L23.2792 23.0948L22.6009 22.36ZM23.8329 22.316L24.7514 22.7115L25.0702 21.9709L24.4141 21.5023L23.8329 22.316ZM22.4469 25.814L21.5083 25.4688L21.5049 25.4783L22.4469 25.814ZM21.1269 29.774L22.0806 30.0746L22.0816 30.0717L21.1269 29.774ZM19.9609 33.734L18.9961 33.4709L19.9609 33.734ZM19.0809 37.254L18.1047 37.0371L17.8704 38.0912L18.9395 38.2439L19.0809 37.254ZM19.5869 37.32L19.4765 38.3139L19.4874 38.315L19.5869 37.32ZM22.7329 36.682L22.2977 35.7817L22.2886 35.786L22.2796 35.7906L22.7329 36.682ZM25.1749 34.922L25.882 35.6291L25.1749 34.922ZM27.1769 32.326L28.0378 32.8347L28.0411 32.8291L27.1769 32.326ZM28.4969 29.224L27.5373 28.9425L27.5349 28.951L28.4969 29.224ZM28.4089 23.02L27.5111 23.4604L27.5145 23.4672L28.4089 23.02ZM26.8249 21.304L27.3024 20.4254V20.4254L26.8249 21.304ZM21.8969 21.326L21.4497 20.4316L21.4497 20.4316L21.8969 21.326ZM20.0929 22.866L20.9191 23.4293L20.9191 23.4293L20.0929 22.866ZM19.4549 25.506L18.461 25.6164L18.467 25.6702L18.4787 25.7229L19.4549 25.506ZM19.5429 25.858V26.858H20.8686L20.5044 25.5833L19.5429 25.858ZM18.5089 25.506L17.7145 26.1135L17.7346 26.1397L17.7563 26.1645L18.5089 25.506ZM18.7509 23.086L17.9295 22.5156L17.9262 22.5205L18.7509 23.086ZM20.2469 21.634L19.6835 20.8077L19.6747 20.8139L20.2469 21.634ZM22.4689 20.578L22.77 21.5316L22.7776 21.5292L22.7851 21.5267L22.4689 20.578ZM28.2989 20.974L27.7337 21.7989L27.7424 21.8049L27.7512 21.8107L28.2989 20.974ZM30.0589 23.13L30.9863 22.756L30.9863 22.756L30.0589 23.13ZM30.0149 29.862L30.9612 30.1854L30.9624 30.1818L30.0149 29.862ZM28.3649 33.074L27.552 32.4916L27.5503 32.4939L28.3649 33.074ZM25.9889 35.626L26.6152 36.4057L26.6228 36.3994L25.9889 35.626ZM23.1069 37.298L22.747 36.365L22.7389 36.3681L22.7309 36.3714L23.1069 37.298ZM20.0489 36.914C19.6925 36.914 19.3634 36.8625 19.0569 36.764L18.4449 38.668C18.9597 38.8335 19.496 38.914 20.0489 38.914V36.914ZM19.0256 36.7545C18.8703 36.7101 18.6953 36.6042 18.5086 36.3428L16.8812 37.5052C17.2811 38.0652 17.8102 38.4872 18.4762 38.6775L19.0256 36.7545ZM18.6739 37.128C18.8171 36.4403 18.9897 35.6993 19.192 34.9047L17.2538 34.4113C17.0454 35.23 16.866 35.9997 16.7159 36.72L18.6739 37.128ZM19.1888 34.9167C19.4067 34.1032 19.6393 33.2748 19.8865 32.4313L17.9673 31.8687C17.7158 32.7266 17.479 33.5701 17.2569 34.3993L19.1888 34.9167ZM19.8878 32.4269C20.1359 31.5659 20.3839 30.7271 20.6318 29.9105L18.718 29.3295C18.4672 30.1556 18.2166 31.0035 17.966 31.8731L19.8878 32.4269ZM20.6285 29.9211C20.8916 29.0878 21.14 28.3135 21.3735 27.5984L19.4723 26.9776C19.2365 27.6998 18.9861 28.4802 18.7213 29.3189L20.6285 29.9211ZM21.3735 27.5984C21.6065 26.8847 21.8168 26.2614 22.0044 25.7275L20.1174 25.0645C19.9237 25.616 19.7086 26.2539 19.4723 26.9776L21.3735 27.5984ZM22.0044 25.7275C22.1946 25.1861 22.3392 24.7811 22.4392 24.5097L20.5625 23.8183C20.4572 24.1042 20.3085 24.5206 20.1174 25.0645L22.0044 25.7275ZM22.4372 24.5151C22.4672 24.4351 22.5273 24.2948 22.6271 24.0809L20.8147 23.2351C20.7092 23.4612 20.6226 23.6582 20.5646 23.8129L22.4372 24.5151ZM22.637 24.0588C22.7187 23.8722 22.82 23.6806 22.9429 23.484L21.2469 22.424C21.0764 22.6967 20.9284 22.9745 20.8047 23.2572L22.637 24.0588ZM22.9429 23.484C23.0406 23.3277 23.1432 23.2111 23.2468 23.1234L21.955 21.5966C21.6772 21.8316 21.4426 22.1109 21.2469 22.424L22.9429 23.484ZM23.2792 23.0948C23.3041 23.0718 23.3091 23.0737 23.2918 23.0811C23.2833 23.0848 23.2716 23.0888 23.2572 23.0918C23.2429 23.0947 23.2291 23.096 23.2169 23.096V21.096C22.7013 21.096 22.2628 21.3112 21.9226 21.6252L23.2792 23.0948ZM23.2169 23.096C23.2084 23.096 23.2009 23.0952 23.1951 23.0942C23.1894 23.0932 23.1871 23.0922 23.1886 23.0927C23.1916 23.0938 23.2128 23.1019 23.2517 23.1297L24.4141 21.5023C24.0786 21.2626 23.6743 21.096 23.2169 21.096V23.096ZM22.9144 21.9205C22.4515 22.9958 21.9828 24.1788 21.5084 25.4688L23.3854 26.1592C23.8496 24.8972 24.305 23.7482 24.7514 22.7115L22.9144 21.9205ZM21.5049 25.4783C21.0455 26.7676 20.6013 28.1003 20.1722 29.4763L22.0816 30.0717C22.5031 28.7197 22.9389 27.4124 23.3889 26.1496L21.5049 25.4783ZM20.1732 29.4734C19.7441 30.8344 19.3517 32.1669 18.9961 33.4709L20.9257 33.9971C21.274 32.7197 21.659 31.4122 22.0806 30.0746L20.1732 29.4734ZM18.9961 33.4709C18.6409 34.7734 18.3435 35.9625 18.1047 37.0371L20.0571 37.4709C20.2876 36.4335 20.5769 35.2759 20.9257 33.9971L18.9961 33.4709ZM18.9395 38.2439C19.1501 38.274 19.3301 38.2976 19.4765 38.3139L19.6973 36.3261C19.5797 36.313 19.4224 36.2926 19.2223 36.2641L18.9395 38.2439ZM19.4874 38.315C19.667 38.333 19.8468 38.342 20.0269 38.342V36.342C19.9136 36.342 19.8002 36.3363 19.6864 36.325L19.4874 38.315ZM20.0269 38.342C21.1286 38.342 22.1854 38.0823 23.1861 37.5734L22.2796 35.7906C21.5498 36.1617 20.8026 36.342 20.0269 36.342V38.342ZM23.1681 37.5823C24.1569 37.1044 25.0613 36.4498 25.882 35.6291L24.4678 34.2149C23.7925 34.8902 23.0689 35.4089 22.2977 35.7817L23.1681 37.5823ZM25.882 35.6291C26.7065 34.8046 27.4249 33.872 28.0378 32.8347L26.316 31.8173C25.7849 32.716 25.1686 33.5141 24.4678 34.2149L25.882 35.6291ZM28.0411 32.8291C28.6549 31.7747 29.1279 30.6634 29.4589 29.497L27.5349 28.951C27.2499 29.9552 26.8429 30.912 26.3126 31.8229L28.0411 32.8291ZM29.4565 29.5055C29.8044 28.3192 29.9809 27.1318 29.9809 25.946H27.9809C27.9809 26.9308 27.8347 27.9288 27.5373 28.9425L29.4565 29.5055ZM29.9809 25.946C29.9809 24.6602 29.7759 23.5179 29.3033 22.5728L27.5145 23.4672C27.8046 24.0474 27.9809 24.8558 27.9809 25.946H29.9809ZM29.3067 22.5796C28.8462 21.6409 28.182 20.9034 27.3024 20.4254L26.3474 22.1826C26.8171 22.4379 27.2089 22.8445 27.5111 23.4604L29.3067 22.5796ZM27.3024 20.4254C26.4586 19.9668 25.5047 19.754 24.4709 19.754V21.754C25.2264 21.754 25.8418 21.9079 26.3474 22.1826L27.3024 20.4254ZM24.4709 19.754C23.3808 19.754 22.3669 19.973 21.4497 20.4316L22.3441 22.2204C22.9522 21.9164 23.6543 21.754 24.4709 21.754V19.754ZM21.4497 20.4316C20.5489 20.882 19.8114 21.5038 19.2667 22.3027L20.9191 23.4293C21.2544 22.9376 21.7196 22.5327 22.3441 22.2204L21.4497 20.4316ZM19.2667 22.3027C18.7096 23.1197 18.4329 24.0434 18.4329 25.044H20.4329C20.4329 24.4313 20.5962 23.9029 20.9191 23.4293L19.2667 22.3027ZM18.4329 25.044C18.4329 25.2458 18.4412 25.4382 18.461 25.6164L20.4488 25.3956C20.4392 25.3098 20.4329 25.1942 20.4329 25.044H18.4329ZM18.4787 25.7229C18.5113 25.8695 18.5454 26.0067 18.5814 26.1327L20.5044 25.5833C20.4818 25.504 20.4572 25.4065 20.4311 25.2891L18.4787 25.7229ZM19.5429 24.858C19.3766 24.858 19.2844 24.8372 19.2437 24.8233C19.2094 24.8117 19.2304 24.812 19.2615 24.8475L17.7563 26.1645C18.2356 26.7122 18.929 26.858 19.5429 26.858V24.858ZM19.3032 24.8985C19.2562 24.837 19.2229 24.7612 19.2229 24.626H17.2229C17.2229 25.1654 17.3803 25.6763 17.7145 26.1135L19.3032 24.8985ZM19.2229 24.626C19.2229 24.3541 19.3132 24.0343 19.5756 23.6515L17.9262 22.5205C17.4846 23.1644 17.2229 23.8712 17.2229 24.626H19.2229ZM19.5723 23.6564C19.8595 23.2428 20.267 22.8393 20.8191 22.4541L19.6747 20.8139C18.9654 21.3087 18.3756 21.8732 17.9295 22.5156L19.5723 23.6564ZM20.8102 22.4602C21.3657 22.0815 22.0159 21.7697 22.77 21.5316L22.1678 19.6244C21.2498 19.9143 20.4188 20.3065 19.6836 20.8078L20.8102 22.4602ZM22.7851 21.5267C23.5127 21.2842 24.2927 21.16 25.1309 21.16V19.16C24.0918 19.16 23.0971 19.3145 22.1527 19.6293L22.7851 21.5267ZM25.1309 21.16C26.3227 21.16 27.1599 21.4058 27.7337 21.7989L28.8641 20.1491C27.8539 19.4569 26.5791 19.16 25.1309 19.16V21.16ZM27.7512 21.8107C28.3839 22.2248 28.8398 22.7806 29.1315 23.504L30.9863 22.756C30.5447 21.6607 29.8272 20.7792 28.8465 20.1373L27.7512 21.8107ZM29.1314 23.504C29.4435 24.2778 29.6089 25.1676 29.6089 26.188H31.6089C31.6089 24.9498 31.4076 23.8009 30.9863 22.756L29.1314 23.504ZM29.6089 26.188C29.6089 27.3586 29.4276 28.475 29.0674 29.5422L30.9624 30.1818C31.3942 28.9023 31.6089 27.5694 31.6089 26.188H29.6089ZM29.0686 29.5386C28.7038 30.6061 28.1984 31.5893 27.552 32.4916L29.1778 33.6564C29.9394 32.5933 30.534 31.4352 30.9612 30.1854L29.0686 29.5386ZM27.5503 32.4939C26.911 33.3918 26.1793 34.177 25.355 34.8526L26.6228 36.3994C27.5879 35.6084 28.4402 34.6922 29.1795 33.6541L27.5503 32.4939ZM25.3626 34.8464C24.5449 35.5033 23.6735 36.0077 22.747 36.365L23.4668 38.231C24.5937 37.7963 25.6436 37.1861 26.6151 36.4056L25.3626 34.8464ZM22.7309 36.3714C21.8306 36.7367 20.9386 36.914 20.0489 36.914V38.914C21.2125 38.914 22.3592 38.6806 23.4829 38.2246L22.7309 36.3714Z" fill="black"/>
</g>
<defs>
<filter id="filter0_d_4_189" x="0.374084" y="20.16" width="34.2348" height="25.754" filterUnits="userSpaceOnUse" color-interpolation-filters="sRGB">
<feFlood flood-opacity="0" result="BackgroundImageFix"/>
<feColorMatrix in="SourceAlpha" type="matrix" values="0 0 0 0 0 0 0 0 0 0 0 0 0 0 0 0 0 0 127 0" result="hardAlpha"/>
<feOffset dy="4"/>
<feGaussianBlur stdDeviation="2"/>
<feComposite in2="hardAlpha" operator="out"/>
<feColorMatrix type="matrix" values="0 0 0 0 0 0 0 0 0 0 0 0 0 0 0 0 0 0 0.25 0"/>
<feBlend mode="normal" in2="BackgroundImageFix" result="effect1_dropShadow_4_189"/>
<feBlend mode="normal" in="SourceGraphic" in2="effect1_dropShadow_4_189" result="shape"/>
</filter>
</defs>
</svg>
